<mxfile host="app.diagrams.net" agent="Mozilla/5.0 (Windows NT 10.0; Win64; x64) AppleWebKit/537.36 (KHTML, like Gecko) Chrome/136.0.0.0 Safari/537.36 Edg/136.0.0.0" version="27.0.6">
  <diagram name="第 1 页" id="8faTu3QS6b1U38oDvVCh">
    <mxGraphModel dx="1418" dy="786" grid="1" gridSize="10" guides="1" tooltips="1" connect="1" arrows="1" fold="1" page="1" pageScale="1" pageWidth="1169" pageHeight="827" math="0" shadow="0">
      <root>
        <mxCell id="0" />
        <mxCell id="1" parent="0" />
        <mxCell id="ZThuotnmeRBw-XxC2VrP-20" value="" style="rounded=1;whiteSpace=wrap;html=1;arcSize=2;fillColor=#f5f5f5;fontColor=#333333;strokeColor=#666666;opacity=50;" vertex="1" parent="1">
          <mxGeometry x="140" y="110" width="990" height="570" as="geometry" />
        </mxCell>
        <mxCell id="ZThuotnmeRBw-XxC2VrP-1" value="" style="shape=image;verticalLabelPosition=bottom;labelBackgroundColor=default;verticalAlign=top;aspect=fixed;imageAspect=0;image=data:image/png,iVBORw0KGgoAAAANSUhEUgAAB4AAAAQ4CAIAAABnsVYUAAAldUlEQVR4nO3dO65lRxWA4WrrzqAz1E6sTh15EAhhYhJwhhgBCZEjEo8AEUJCbht5DpaYQMsJLQdIPQYINhwO57kf9VhV9X1y0H19JVffvta++9fSqpQAAAAAAAAAAAAAAAAAAAAAAAAAAAAAAAAAAAAAAAAAAAAAAAAAAAAAAAAAAAAAAAAAAAAAAAAAAAAAAAAAAAAAAAAAAAAAAAAAAAAAAAAAAAAAAAAAAAAAAAAAAAAAAAAAAAAAAAAAAAAAAAAAAAAAAAAAAAAAAAAAAAAAAAAAAAAAAAAAAAAAAAAAAAAAAAAAAAAAAAAAAAAAAAAAAAAAAAAAAAAAAAAAAAAAAAAAAAAAAAAAAAAAAAAAAAAAAAAAAAAAAAAAAAAAAAAAAAAAAAAAAAAAAAAAAAAAAAAAAAAAAAAAAAAAAAAAAAAAAAAAAAAAAAAAAAAAAAAAAAAAAAAAAAAAAAAAAAAAAAAAAAAAAAAAAAAAAAAAAAAAAAAAAAAAAAAAAAAAAAAAAAAAAAAAAAAAAAAAAAAAAAAAAAAAAAAAAAAAAAAAAAAAAAAAAAAAAAAAAAAAAAAAAAAAAAAAAAAAAAAAAAAAAAAAAAAAAAAAAAAAAAAAAAAAAAAAAAAAAAAAAAAAAAAAAAAAAAAAAAAAAAAAAAAAAAAAAAAAAAAAAAAAAAAAAAAAAAAAAAAAAAAAAAAAAAAAAAAAAAAAAAAAAAAAAAAAAAAAAAAAAAAAAAAAAAAAAAAAAAAAAAAAAAAAAAAAAAAAAAAAAAAAAAAAAAAAAAAAAAAAAAAAAAAAAAAAAAAAAAAAAAAAAAAAAAAAAAAAAAAAAAAAAAAAAAAAAAAAAAAAAAAAAAAAAAAAAAAAAAAAAAAAAAAAAAAAAAAAAAAAAAAAAAAAAAAAAAAAAAAAAAAAAAAAAAAAAAAAAAAAAAAAAAAAAAAAAAAAAAAAAAAAAAAAAAAAAAAAAAAAAAAAAAAAAAAAAAAAAAAAAAAAAAAAAAAAAAAAAAAAAAAAAAAAAAAAAAAAAAAAAAAAAAAAAAAAAAAAAAAAAAAAAAAAAAAAAAAAAAAAAAAAAAAAAAAAAAAAAAAAAAAAAAAAAAAAAAAAAAAAAAAAAAAAAAAAAAAAAAAAAAAAAAAAAAAAAAAAAAAAAAAAAAAAAAAAAAAAAAAAAAAAAAAAAAAAAAAAAAAAAAAAAAAAAAAAAAAAAAAAAAAAAAAAAAAAAAAAAAAAAAAAAAAAAAAAAAAAAAAAAAAAAAAAAAAAAAAAAAAAAAAAAAAAAAAAAAAAAAAAAAAAAAAAAAAAAAAAAAAAAAAAAAAAAAAAAAAAAAAAAAAAAAAAAAAAAAAAAAAAAAAAAAAAAAAAAAAAAAAAAAAAAAAAAAAAAAAAAAAAAAAAAAAAAAAAAAAAAAAAAAAAAAAAAAAAAAAAAAAAAAAAAAAAAAAAAAAAAAAAAAAAAAAAAAAAAAAAAAAAAAAAAAAAAAAAAAAAAAAAAAAAAAAAAAAAAAAAAAAAAAAAAAAAAAAAAAAAAAAAAAAAAAAAAAAAAAAAAAAAAAAAAAAAAAAAAAAAAAAAAAAAAAAAAAAAAAAAAAAAAAAAAAAAAAAAAAAAAAAAAAAAAAAAAAAAAAAAAAAAAAAAAAAAAAAAAAAAAAAAAAAAAAAAAAAAAAAAAAAAAAAAAAAAAAAAAAAAAAAAAAAAAAAAAAAAAAAAAAAAAAAAAAAAAAAAAAAAAAAAAAAAAAAAAAAAAAAAAAAAAAAAAAAAAAAAAAAAAAAAAAAAAAAAAAAAAAAAAAAAAAAAAAAAAAAAAAAAAAAAAAAAAAAAAAAAAAAAAAAAAAAAAAAAAAAAAAAAAAAAAAAAAAAAAAAAAAAAAAAAAAAAAAAAAAAAAAAAAAAAAAAAAAAAAAAAAAAAAAAAAAAAAAAAAAAAAAAAAAAAAAAAAAAAAAAAAAAAAAAAAAAAAAAAAAAAAAAAAAAAAAAAAAAAAAAAAAAAAAAAAAAAAAAAAAAAAAAAAAAAAAAAAAAAAAAAAAAAAAAAAAAAAAAAAAAAAAAAAAAAAAAAAAAAAAAAAAAAAAAAAAAAAAAAAAAAAAAAAAAAAAAAAAAAAAAAAAAAAAAAAAAAAAAAAAAAAAAAAAAAAAAAAAAAAAAAAAAAAAAAAAAAAAAAAAAAAAAAAAAAAAAAAAAAAAAAAAAAAAAAAAAAAAAAAAAAAAAAAAAAAAAAAAAAAAAAAAAAAAAAAAAAAAAAAAAAAAAAAAAAAAAAAAAAAAAAAAAAAAAAAAAAAAAAAAAAAAAAAAAAAAAAAAAAAAAAAAAAAAAAAAAAAAAAAAAAAAAAAAAAAAAAAAAAAAAAAAAAAAAAAAAAAAAAAAAAAAAAAAAAAAAAAAAAAAAAAAAAAAAAAAAAAAAAAAAAAAAAAAAAAAAAAAAAAAAAAAAAAAAAAAAAAAAAAAAAAAAAAAAAAAAAAAAAAAAAAAAAAAAAAAAAAAAAAAAAAAAAAAAAAAAAAAAAAAAAAAAAAAAAAAAAAAAAAAAAAAAAAAAAAAAAAAAAAAAAAAAAAAAAAAAAAAAAAAAAAAAAAAAAAAAAAAAAAAAAAAAAAAAAAAAAAAAAAAAAAAAAAAAAAAAAAAAAAAAAAAAAAAAAAAAAAAAAAAAAAAAAAAAAAAAAAAAAAAAAAAAAAAAAAAAAAAAAAAAAAAAAAAAAAAAAAAAAAAAAAAAAAAAAAAAAAAAAAAAAAAAAAAAAAAAAAAAAAAAAAAAAAAAAAAAAAAAAAAAAAAAAAAAAAAAAAAAAAAAAAAAAAAAAAAAAAAAAAAAAAAAAAAAAAAAAAAAAAAAAAAAAAAAAAAAAAAAAAAAAAAAAAAAAAAAAAAAAAAAAAAAAAAAAAAAAAAAAAAAAAAAAAAAAAAAAAAAAAAAAAAAAAAAAAAAAAAAAAAAAAAAAAAAAAAAAAAAAAAAAAAAAAAAAAAAAAAAAAAAAAAAAAAAAAAAAAAAAAAAAAAAAAAAAAAAAAAAAAAAAAAAAAAAAAAAAAAAAAAAAAAAAAAAAAAAAAAAAAAAAAAAAAAAAAAAAAAAAAAAAAAAAAAAAAAAAAAAAAAAAAAAAAAAAAAAAAAAAAAAAAAAAAAAAAAAAAAAAAAAAAAAAAAAAAAAAAAAAAAAAAAAAAAAAAAAAAAAAAAAAAAAAAAAAAAAAAAAAAAAAAAAAAAAAAAAAAAAAAAAAAAAAAAAAAAAAAAAAAAAAAAAAAAAAAAAAAAAAAAAAAAAAAAAAAAAAAAAAAAAAAAAAAAAAAAAAAAAAAAAAAAAAAAAAAAAAAAAAAAAAAAAAAAAAAAAAAAAAAAAAAAAAAAAAAAAAAAAAAAAAAAAAAAAAAAAAAAAAAAAAAAAAAAAAAAAAAAAAAAAAAAAAAAAAAAAAAAAAAAAAAAAAAAAAAAAAAAAAAAAAAAAAAAAAAAAAAAAAAAAAAAAAAAAAAAAAAAAAAAAAAAAAAAAAAAAAAAAAAAAAAAAAAAAAAAAAAAAAAAAAAAAAAAAAAAAAAAAAAAAAAAAAAAAAAAAAAAAAAAAAAAAAAAAAAAAAAAAAAAAAAAAAAAAAAAAAAAAAAAAAAAAAAAAAAAAAAAAAAAAAAAAAAAAAAAAAAAAAAAAAAAAAAAAAAAAAAAAAAAAAAAAAAAAAAAAAAAAAAAAAAAAAAAAAAAAAAAAAAAAAAAAAAAAAAAAAAAAAAAAAAAAAAAAAAAAAAAAAAAAAAAAAAAAAAAAAAAAAAAAAAAAAAAAAAAAAAAAAAAAAAAAAAAAAAAAAAAAAAAAAAAAAAAAAAAAAAAAAAAAAAAAAAAAAAAAAAAAAAAAAAAAAAAAAAAAAAAAAAAAAAAAAAAAAAAAAAAAAAAAAAAAAAAAAAAAAAAAAAAAAAAAAAAAAAAAAAAAAAAAAAAAAAAAAAAAAAAAAAAAAAAAAAAAAAAAAAAAAAAAAAAAAAAAAAAAAAAAAAAAAAAAAAAAAAAAAAAAAAAAAAAAAAAAAAAAAAAAAAAAAAAAAAAAAAAAAAAAAAAAAAAAAAAAAAAAAAAAAAAAAAAAAAAAAAAAAAAAAAAAAAAAAAAAAAAAAAAAAAAAAAAAAAAAAAAAAAAAAAAAAAAAAAAAAAAAAAAAAAAAAAAAAAAAAAAAAAAAAAAAAAAAAAAAAAAAAAAAAAAAAAAAAAAAAAAAAAAAAAAAAAAAAAAAAAAAAAAAAAAAAAAAAAAAAAAAAAAAAAAAAAAAAAAAAAAAAAAAAAAAAAAAAAAAAAAAAAAAAAAAAAAAAAAAAAAAAAAAAAAAAAAAAAAAAAAAAAAAAAAAAAAAAAAAAAAAAAAAAAAAAAAAAAAAAAAAAAAAAAAAAAAAAAAAAAAAAAAAAAAAAAAAAAAAAAAAAAAAAAAAAAAAAAAAAAAAAAAAAAAAAAAAAAAAAAAAAAAAAAAAAAAAAAAAAAAAAAAAAAAAAAAAAAAAAAAAAAAAAAAAAAAAAAAAAAAAAAAAAAAAAAAAAAAAAAAAAAAAAAAAAAAAAAAAAAAAAAAAAAAAAAAAAAAAAAAAAAAAAAAAAAAAAAAAAAAAAAAAAAAAAAAAAAAAAAAAAAAAAAAAAAAAAAAAAAAAAAAAAAAAAAAAAAAAAAAAAAAAAAAAAAAAAAAAAAAAAAAAAAAAAAAAAAAAAAAAAAAAAAAAAAAAAAAAAAAAAAAAAAAAAAAAAAAAAAAAAAAAAAADI4lXrAwAAQDc+vHl78ZHX7981OQkAAHRBgAYAgA2uG3SSoQEA4A4BGgAAdjqP0Ro0AABcE6ABAGC/i4FoGRoAAM4J0AAAsN/NjRznJGkAAGYmQAMAQAaPS7QMDQDAnARoAAAo4jpJy9AAAMxGgAYAgILuTUaL0QAAzECABgCAgiyJBgBgZgI0AACU9bRBJxkaAIBBCdAAAFCJEg0AwGwEaAAAqGpNhk5KNAAAQxCgAQAo5ZsfPz7/7c9/8o9WJ4lGgwYAYBIftT4AAABjuqjPnFtZlj+8ebsyVQMAQEwmoAEAoDG7oQEAGJUADQAAUSjRAAAMRoAGAAjqT//64/KL37z6bduTUNP6nRtKNAAA8QnQAAANnOLyDnr08DbtfZahAQCITIAGACjoSGh+QIOehGloAAB6J0ADAGRWKDpf0KCnokQDANCpl9YHAAAYR530zIRev3+3skEvnyZDAwAQxEetDwAAADz3+v279Vl50xZpAAAoxwQ0AEBnLN+Y2XmDflyZT//WNDQAAA0J0AAAPVGfOTmV5ZUlOonRAABUZwUHAEA31Gdu2rSaY/mn6HkAAODkVesDAADT+fPP/rL84td/+1Xbk+RV+gZC9ZmnNpVl09AAAFQgQAMAZFCuPuvO7LC+RMvQAAAUJUADABxSKD3rzmSxpkRr0AAAlCNAAwB5nBZrXBhjz0bp9RrnekzP3/z48fKLn//kH21Pwk0yNAAArQjQAEAGo9bnmt059ZmeF0uAVp+De5qhNWgAALIToAEAbpCeGduDGC1DAwCQkQANAPAflaPzot/0bO3GGJRoAACKEqABgNvubdVInS/WaFKZ7+m0Pp/S80KA7p0N0QAAlCNAAwD/50F3XnRan0N158UY9TkJ0EPQoAEAKESABgBGFrA7p27Tc7pVn5MAPRYXFQIAkJcADQAMKGZ3XqjPdMFMNAAAWQjQADCLUXc6X4icntNw9TkJ0KNbk6GTEg0AwH0CNACMT3oOot/6nIw/T2xlg04yNAAAtwjQAED3pOfS1GdOHvdoDRoAgAsCNADQq/jdOQ2anpP6zMMSLUMDAHAiQANA367Xa4y0VeOmLrrzouv6fC89J/WZ/3JRIQAAT720PgAAsNODzc6j6ig9J/WZCbx+/+5pg14+QYYGAJiWCWgAILq+unPqPD0vBGi2elqiNWgAgDmZgAYA4uouPach6jPscOrL90q0UWgAgDmZgAaAWCbc6Xytx+68GKY+u3uQg6yHBgBgIUADQCAX9Vl67sgw6fnkZoMWoNnEXg4AAARoACAE6Tmm6wytQbPPvRitQQMAjE2ABgDa6Lc4n4ydnk80aPJSogEApiJAA0BB1wudFxPu1lgMEJ3TNN353L2V0EmMZherOQAA5iFAA0AR99Jzmq8+jxGdFxOm55MHDXqhRLPJmlsKkxINANA/ARoAyG+k6Jzm7s4nTwN00qDZxTQ0AMDYXlofAAAYh+4MbHXqy/dK9OnjSjQAQI9MQAPAKg9WaixmW6xxMlh0XkjPNxmCprSVezmSGA0A0A8BGgDuehqdF3Om5yG7c5Ke71iTnpP6TCYyNADASARoAGCDUbvzQn2+ZuqZtmyIBgDonQANwNQezDjPOdd8z9jdeaE+X1OfCeVxjFaiAQBiEqABmMjKlRonkzfoGaLzifp8wc4NYlq5nUOMBgCIQ4AGYHxbu3OaOz1P1Z0X6vMF9ZnIbIgGAOiLAA3AsMw7bzJhd07S85WV6TmpzwSwpkRr0AAAzQnQAIxDcd5HemahPtMpFxUCAEQmQAPQpR1bNU5055M503NSn6+sT89JfSYq66EBAGJ6aX0AANhgd3cWnS9Mm565pj4zhqUsP83QyyfI0AAA1QjQAHTALYIZSc/spj4T30VZvtejP7x5q0EDANQhQAMQkeJcgvTMNXufGdupMl+X6NNHlGgAgKLsgAYgin3rNXTnp3TnCxZAn1sZoNVnBrBmSbQYDQCQnQANQEvuEixHd74mPV9bE6DVZ4ax8qLCbz/90iMGACAXARqABtwlWJr6fE19vqY+My3T0AAA1QjQABRnzLkm6fma9HyT+gxpRYmWoQEADhKgAcjsSG5eiM476M43Sc/3qM9wbs1AtL0cAAD7CNAAZGPSuQnp+Sbp+QH1GW5ak6G//+Kzn/7hrxUOAwAwDAEagENsc25Fd75Hen5MfYY1HsRoDRoAYBMBGoBtFOe2dOd7dOc1ntZn6Rmu3YzR33/xWUpJiQYAeEqABuA5uzXaEp0f0J1XMvgMRzwYiP720y9Pv/bIAwC4JkADcNfB6wS9h++mOK8hPW8iQMNxMjQAwA4CNACXzDs3ITqvJz1vpT5DRmsytKchAMCJAA0wu4Njzslr9jG68ybS8w7qMxTyoEQnS6IBAP5LgAaYy/HcvBCdD9Kdt5Ke93HrIJT2OEOnlL7/4rN//v0XnpsAwLQEaIBZWOgcge68j/q8mwANdTzN0Cmlbz/90sMUAJiQAA0wuH3d2RtyXrrzEerzbuozNPE4Rr9+/67aSQAAInhpfQAAMts96Sw65yU6Z6E+77Zm9TNQwikxrxmLBgAYnglogO65RTAO0Tkv9Xk3Fw9CENcN2gQ0ADAbARqgV7pzHLpzdtLzEeozRHOeoQVoAGA2VnAA9ORIdJabS5CeS1Cfj7B5AwJaorONHADAnARogLjMOEcmPReiPldg/BmaMPsMAMzJCg6AQI4X54XuXJT0XI76fJDlG9C7D2/e6tQAwGBMQAOEcDA9K851SM/lSM91qM8QnPoMAIzHBDRAG7Y5d0R3Lkp6zuXp+LP6DAAA1CdAA9SzOzorzk3ozqVJzxmpzwAAQExWcAAU5BbBHunOFUjPea1Z/Qx07cObt+e/takDAOiICWiAnNwi2C/duRr1OTvjzzAJGRoA6JEJaICjROfeSc/VSM8lGH+GeSjOAECPBGiAbXLl5oXo3Jb0XJP63IrxZwAAoCEBGuCJvMU5ic4xSM81Sc/lGH8GAACCswMa4LaM3VlxjkZ9rkl9LmdNfTb+DHP67ve//Okf/tr6FAAAKQnQAOdscx6e9FyN7lyBAA0AAMQnQAOzE50nIT1XIz3XoT4DAABdEKCB6bhFcCq6czW6c03qM7Ded7//5c2P29EBANQhQANTcJHgnNTnatTnygRoYKt7GTop0QBAYQI0MKDsuXkhOvdIgy5Neq5PfQaOuFmiNWgAoBwBGuheody8EJ0HoEEXIj03oT4DWVxnaA0aAChEgAa6VC46K85D0qDzkp5bWVOfkwANrGMpBwBQhwAN9KREd1ac5yFDHyc9N6Q+A+UYiAYAyhGggejcH0h2SvRWunMElm8AAAA9EqCBcBRnqlGiH9Od41CfAQCATgnQQHuFFjrrzqynRJ+IzgFZvgEAAPRLgAaa0Z2JZuYMrTuHpT4DAABdE6CBqkRn4pskQyvOvbB8AwAA6JoADRRUKDef6M6UM1KG1pr7pT4DAAC9E6CB/Ip2Z9GZarpo0OLywNRnAABgAC+tDwCMo1x3Fp1pYmm75TK0dgwAAMDwTEADh5SIznIzAWXJ0IozK5l9BgAAhiFAA5tlj86KMx1ZX6LlZvZRnwEAgJEI0MAqojNABWvqcxKgAQCAfgjQwG2FFjrrzgD3qM8AAMB4BGggpZL3BybRGWAF9RkAABiSAA3zEp0BglCfAQCAUQnQMB27NQBCUZ8BAICBCdAwERcJAkSjPgNAK5/87vPrD/7w1df1TwIwNgEaxpelO2vNAHmtTM9JfQaA1W425Vy0aYB9BGgYk+gMENP67rxQnwHggaLFeT1tGuABARoGkXG9hu4MUMLW9JzUZwC4I0h33kGqBiYkQEPfdGeALqjPALBDv6F5E1UaGJsADZ3Je5Gg6AxQ2o70nNRnAGY1SXF+QIwGxiNAQ2h5c/NCdAaoZl99TgI0ANNQnFcSpoF+CdAQkTFngAGozwDMRk1uRZ4GIhOgIQrRGWAYu9NzUp8BiERQ7pckDcQhQENjubqz4gwQhPoMQBfE5XmI0UBbL60PADPKEp0VZwAA4B59mZOLbwY9GqjMBDTUYL0GwAyOzD4n488ArKMsU4IqDZQjQENmeVvzOd0ZIDL1GYAS5GbqE6OBvARoOEpxBkB9BmAffZn49GjgIAEa9hCdAThRnwF4TGVmPKo0sJ4ADWuJzgBcOJiek/oMMC7RmZnJ08A5ARqeK5GeRWeA3qnPAFzTnWE9nRomIUDDXRm7s9wMMBj1GYCF4gx5qdIwHgEa/k+u6Kw4AwxMfQaYmeIMTQjT0C8BmtnlXa+hOwMMT30GmIrcDGFJ0tALAZoZZd/prDsDzONIgJaeASLTmqF3kjTEJEAzC9EZgFx2NGjpGSAIlRlmo0pDcwI0g9OdAShhZYPWnQFCUZ+B9ZRryEWAZliuEwSgqHsNWnQGCEuABsoRrOEeAZoBHUzPijMAm3zz48eiM0B86jNQnyoNSYBmMPvSs+IMAABdE5eB4JRoZvbS+gCQwY7uLDoDAECn5GYA6IgATZeOLNmQngEAoDLJGACmJUDTE8udAQAgIH0ZALhHgKYDujMAAEQjOgMAawjQxKU7AwBANLozALCJAE04B7tzkp4BAKAA6RkA2EGAJhAjzwAAEI3uDAAcIUATwu70LDoDAEAWQjMAUIIATUv7urPoDADA8ORgAGAMAjRVWbIBAADnhGYAxlDnifbDV19X+K+Q16vWB2B8xy8VTNIzAACjUJwBJjRkNm3+RBvyqzokAZoiskTnpDsDADCW5u/qADQxWCoN+Dgb7Cs8GCs4yEl3BgAAABhVwPS8uDiYHh2KAE0GujMAAADAwMKm55uenlahrkmAZj/dGQAA1ujrpR0Ahnd6NCvRFdgBzWYuFQQAgGsqMwD3jFQ5h3nejfSXEpwAzVrHu7PoDADAMIZ5/QaggvFaZ9fPwfH+OoIToLkr14aNJD0DABBA16/KAHRt4OLZ1+N14L+IyOyA5n8yFucT6RkAgLb6ejEGgI709ZBVn1sRoKdWojgn0RkAgAD6eiUGgF70+ISVntsSoOdSqDgvdGcAACLo8cUYgKmseVTFaaZdP1jjfBlnZgf0+IpG56Q7AwAQRtdvyACwRoWiGud5Kh+PQYAelmFnAAAmEec9GQDqy1JpQz1MdefBCNBDsdMZAIDgQr3fAsB4NtXbsM9lDXokAnT3SkRnxRkAgCzCvtYCAMFp0MMQoHtiqwYAAMEpzgBALhr0GATo6FwhCABAcKIzAFCIBj0AATquculZdAYA4CDRGQCoQ4PunQAdUd70LDcDAHCc4gwANCRD90uADiFXcdaaAQC4ST4GAHqnQXfqpfUB2ElrBgDgMdEZABjJ8rONDN0dE9AAADAa6RkAGJ4S3QsBGgAAhqI+AwDzkKHjE6ABAGAQ0jMAMCcZOjIBGgAAuic9AwCT06DDEqABAKCe3aX45juV7gwAcE6GDkiABgCA4pRiAIA6NOhoBGgAAChFdwYAqE+DDkWABgCA/KRnAICGNOg4Pmp9AAAAGI36DAAACwEaAAByUp8BAJrzI1kcAjQAAGTjVQcAIAg/mAXx0voAAAAwAm84AABwzQQ0AABsc92a1WcAALjpVesDAADANp/87vPra82zJOCbt6WLywAAnbr50x2VCdAAAHRDCwYAYD0BOgIBGgCA/ijRAAA8JUBHIEADADCIXFV65SKO808TxAEAolGfgxCgAQAY3NM6nPHlRIkGAIhAfY5DgAYAgJw0aACAttTnUARoAAAoQokGAKhPfY5GgAYAgLKUaACACqTnmARoAACoR4wGAMhOeo5MgAYAgGa29uiVL1cyNwAwCek5PgEaAABGJkYDAEOSnnshQAMAwBSUaACgU1pz1wRoAACYjhgNADQnK09CgAYAgHkp0QBAaULz5ARoAABgJ/0aALhHd2YhQAMAADmp0lSzNW345gSoQHfmggANAADUM1UBvH4Dr/PHj59lW7WJqb79AOqTnrlJgAYAAKgkbwD1np+RNg2wm+cRjwnQAAAAbWyKnl7v21KoAS54MLGSAA0AAAANiNpAj3RnthKgAQAAoA+aNdCK7sxuAjQAAACMQ6Qe1b785/uBfeRmMhKgAQAAgJTCx8qVRSzmn6LHnBfzK8lxPX430jUBGgAAANjDRZrTatumM34vHfyD3DtJtHbv/z7aEqABAAAAyCB7eJ25nK75Yv7w1df3Pm3mLx0AAAAAAAAAAAAAAAAAAAAAAAAAAAAAAAAAAAAAAAAAAAAAAAAAAAAAAAAAAAAAAAAAAAAAAAAAAAAAAAAAAAAAAAAAAAAAAAAAAAAAAAAAAAAAAAAAAAAAAAAAAAAAAAAAAAAAAAAAAAAAAAAAAAAAAAAAAAAAAAAAAAAAAAAAAAAAAAAAAAAAAAAAAAAAAAAAAAAAAAAAAAAAAAAAAAAAAAAAAAAAAAAAAAAAAAAAAAAAAAAAAAAAAAAAAAAAAAAAAAAAAAAAAAAAAAAAAAAAAAAAAAAAAAAAAAAAAAAAAAAAAAAAAAAAAAAAAAAAAAAAAAAAAAAAAAAAAAAAAAAAAAAAAAAAAAAAAAAAAAAAAAAAAAAAAAAAAAAAAAAAAAAAAAAAAAAAAAAAAAAAAAAAAAAAAAAAAAAAAAAAAAAAAAAAAAAAAAAAAAAAAAAAAAAAAAAAAAAAAAAAAAAAAAAAAAAAAAAAAAAAAAAAAAAAAAAAAAAAAAAAAAAAAAAAAAAAAAAAAAAAAAAAAAAAAAAAAAAAAAAAAAAAAAAAAAAAAAAAAAAAAAAAAAAAAAAAAAAAAAAAAAAAAAAAAAAAAAAAAAAAAAAAAAAAAAAAAAAAAAAAAAAAAAAAAAAAAAAAAAAAAAAAAAAAAAAAAAAAAAAAAAAAAAAAAAAAAAAAAAAAAAAAAAAAAAAAAAAAAAAAAAAAAAAAAAAAAAAAAAAAAAAAAAAAAAAAAAAAAAAAAAAAAAAAAAAAAAAAAAAAAAAAAAAAAAAAAAAAAAAAAAAAAAAAAAAAAAAAAAAAAAAAAAAAAAAAAAAAAAAAAAAAAAAAAAAAAAAAAAAAAAAAAAAAAAAAAAAAAAAAAAAAAAAAAAAAAAAAAAAAAAAAAAAAAAAAAAAAAAAAAAAAAAAAAAAAAAAAAAAAAAAAAAAAAAAAAAAAAAAAAAAAAAAAAAAAAAAAAAAAAAAAAAAAAAAAAAAAAAAAAAAAAAAAAAAAAAAAAAAAAAAAAAAAAAAAAAAAAAAAAAAAAAAAAAAAAAAAAAAAAAAAAAAAAAAAAAAAAAAAAAAAAAAAAAAAAAAAAAAAAAAAAAAAAAAAAAAAAAAAAAAAAAAAAAAAAAAAAAAAAAAAAAAAAAAAAAAAAAAAAAAAAAAAAAAAAAAAAAAAAAAAAAAAAAAAAAAAAAAAAAAAAAAAAAAAAAAAAAAAAAAAAAAAAAAAAAAAAAAAAAAAAAAAAAAAAAAAAAAAAAAAAAAAAAAAAAAAAAAAAAAAAAAAAAAAAAAAAAAAAAAAAAAAAAAAAAAAAAAAAAAAAAAAAAAAAAAAAAAAAAAAAAAAAAAAAAAAAAAAAAAAAAAAAAAAAAAAAAAAAAAAAAAAAAAAAAAAAAAAAAAAAAAAAAAAAAAAAAAAAAAAAAAAAAAAAAAAAAAAAAAAAAAAAAAAAAAAAAAAAAAAAAAAAAAAAAAAAAAAAAAAAAAAAAAAAAAAAAAAAAAAAAAAAAAAAAAAAAAAAAAAAAAAAAAAAAAAAAAAAAAAAAAAAAAAAAAAAAAAAAAAAAAAAAAAAAAAAAAAAAAAAAAAAAAAAAAAAAAAAAAAAAAAAAAAAAAAAAAAAAAAAAAAAAAAAAAAAAAAAAAAAAAAAAAAAAAAAAAAAAAAAAAAAAAAAAAAAAAAAAAAAAAAAAAAAAAAAAAAAAAAAAAAAAAAAAAAAAAAAAAAAAAAAAAAAAAAAAAAAAAAAAAAAAAAAAAAAAAAAAAAAAAAAAAAAAAAAAAAAAAAAAAAAAAAAAAAAAAAAAAAAAAAAAAAAAAAAAAAAAAAAAAAAAAAAAAAAAAAAAAAAAAAAAAAAAAAAAAAAAAAAAAAAAAAAAAAAAAAAAAAAAAc9m/oZZD2Bx8JrwAAAABJRU5ErkJggg==;" vertex="1" parent="1">
          <mxGeometry x="150" y="120" width="480" height="270" as="geometry" />
        </mxCell>
        <mxCell id="ZThuotnmeRBw-XxC2VrP-23" value="" style="group" vertex="1" connectable="0" parent="1">
          <mxGeometry x="150" y="400" width="480" height="270" as="geometry" />
        </mxCell>
        <mxCell id="ZThuotnmeRBw-XxC2VrP-21" value="" style="shape=image;verticalLabelPosition=bottom;labelBackgroundColor=default;verticalAlign=top;aspect=fixed;imageAspect=0;image=data:image/png,iVBORw0KGgoAAAANSUhEUgAAB4AAAAQ4CAIAAABnsVYUAAAbf0lEQVR4nO3d0U3jQBCA4XCiEuqhnauCdqiHWu4B6YSIk6yd9e7M7Pc9IqTbOD5N5hdyLhcAAAAAAAAAAAAAAAAAAAAAAAAAAAAAAAAAAAAAAAAAAAAAAAAAAAAAAAAAAAAAAAAAAAAAAAAAAAAAAAAAAAAAAAAAAAAAAAAAAAAAAAAAAAAAAAAAAAAAAAAAAAAAAAAAAAAAAAAAAAAAAAAAAAAAAAAAAAAAAAAAAAAAAAAAAAAAAAAAAAAAAAAAAAAAAAAAAAAAAAAAAAAAAAAAAAAAAAAAAAAAAAAAAAAAAAAAAAAAAAAAAAAAAAAAAAAAAAAAAAAAAAAAAAAAAAAAAAAAAAAAAAAAAAAAAAAAAAAAAAAAAAAAAAAAAAAAAAAAAAAAAAAAAAAAAAAAAAAAAAAAAAAAAAAAAAAAAAAAAAAAAAAAAAAAAAAAAAAAAAAAAAAAAAAAAAAAAAAAAAAAAAAAAAAAAAAAAAAAAAAAAAAAAAAAAAAAAAAAAAAAAAAAAAAAAAAAAAAAAAAAAAAAAAAAAAAAAAAAAAAAAAAAAAAAAAAAAAAAAAAAAAAAAAAAAAAAAAAAAAAAAAAAAAAAAAAAAAAAAAAAAAAAAAAAAAAAAAAAAAAAAAAAAAAAAAAAAAAAAAAAAAAAAAAAAAAAAAAAAAAAAAAAAAAAAAAAAAAAAAAAAAAAAAAAAAAAAAAAAAAAAAAAAAAAAAAAAAAAAAAAAAAAAAAAAAAAAAAAAAAAAAAAAAAAAAAAAAAAAAAAAAAAAAAAAAAAAAAAAAAAAAAAAAAAAAAAAAAAAAAAAAAAAAAAAAAAAAAAAAAAAAAAAAAAAAAAAAAAAAAAAAAAAAAAAAAAAAAAAAAAAAAAAAAAAAAAAAAAAAAAAAAAAAAAAAAAAAAAAAAAAAAAAAAAAAAAAAAAAAAAAAAAAAAAAAAAAAAAAAAAAAAAAAAAAAAAAAAAAAAAAAAAAAAAAAAAAAAAAAAAAAAAAAAAAAAAAAAAAAAAAAAAAAAAAAAAAAAAAAAAAAAAAAAAAAAAAAAAAAAAAAAAAAAAAAAAAAAAAAAAAAAAAAAAAAAAAAAAAAAAAAAAAAAAAAAAAAAAAAAAAAAAAAAAAAAAAAAAAAAAAAAAAAAAAAAAAAAAAAAAAAAAAAAAAAAAAAAAAAAAAAAAAAAAAAAAAAAAAAAAAAAAAAAAAAAAAAAAAAAAAAAAAAAAAAAAAAAAAAAAAAAAAAAAAAAAAAAAAAAAAAAAAAAAAAAAAAAAAAAAAAAAAAAAAAAAAAAAAAAAAAAAAAAAAAAAAAAAAAAAAAAAAAAAAAAAAAAAAAAAAAAAAAAAAAAAAAAAAAAAAAAAAAAAAAAAAAAAAAAAAAAAAAAAAAAAAAAAAAAAAAAAAAAAAAAAAAAAAAAAAAAAAAAAAAAAAAAAAAAAAAAAAAAAAAAAAAAAAAAAAAAAAAAAAAAAAAAAAAAAAAAAAAAAAAAAAAAAAAAAAAAAAAAAAAAAAAAAAAAAAAAAAAAAAAAAAAAAAAAAAAAAAAAAAAAAAAAAAAAAAAAAAAAAAAAAAAAAAAAAAAAAAAAAAAAAAAAAAAAAAAAAAAAAAAAAAAAAAAAAAAAAAAAAAAAAAAAAAAAAAAAAAAAAAAAAAAAAAAAAAAAAAAAAAAAAAAAAAAAAAAAAAAAAAAAAAAAAAAAAAAAAAAAAAAAAAAAAAAAAAAAAAAAAAAAAAAAAAAAAAAAAAAAAAAAAAAAAAAAAAAAAAAAAAAAAAAAAAAAAAAAAAAAAAAAAAAAAAAAAAAAAAAAAAAAAAAAAAAAAAAAAAAAAAAAAAAAAAAAAAAAAAAAAAAAAAAAAAAAAAAAAAAAAAAAAAAAAAAAAAAAAAAAAAAAAAAAAAAAAAAAAAAAAAAAAAAAAAAAAAAAAAAAAAAAAAAAAAAAAAAAAAAAAAAAAAAAAAAAAAAAAAAAAAAAAAAAAAAAAAAAAAAAAAAAAAAAAAAAAAAAAAAAAAAAAAAAAAAAAAAAAAAAAAAAAAAAAAAAAAAAAAAAAAAAAAAAAAAAAAAAAAAAAAAAAAAAAAAAAAAAAAAAAAAAAAAAAAAAAAAAAAAAAAAAAAAAAAAAAAAAAAAAAAAAAAAAAAAAAAAAAAAAAAAAAAAAAAAAAAAAAAAAAAAAAAAAAAAAAAAAAAAAAAAAAAAAAAAAAAAAAAAAAAAAAAAAAAAAAAAAAAAAAAAAAAAAAAAAAAAAAAAAAAAAAAAAAAAAAAAAAAAAAAAAAAAAAAAAAAAAAAAAAAAAAAAAAAAAAAAAAAAAAAAAAAAAAAAAAAAAAAAAAAAAAAAAAAAAAAAAAAAAAAAAAAAAAAAAAAAAAAAAAAAAAAAAAAAAAAAAAAAAAAAAAAAAAAAAAAAAAAAAAAAAAAAAAAAAAAAAAAAAAAAAAAAAAAAAAAAAAAAAAAAAAAAAAAAAAAAAAAAAAAAAAAAAAAAAAAAAAAAAAAAAAAAAAAAAAAAAAAAAAAAAAAAAAAAAAAAAAAAAAAAAAAAAAAAAAAAAAAAAAAAAAAAAAAAAAAAAAAAAAAAAAAAAAAAAAAAAAAAAAAAAAAAAAAAAAAAAAAAAAAAAAAAAAAAAAAAAAAAAAAAAAAAAAAAAAAAAAAAAAAAAAAAAAAAAAAAAAAAAAAAAAAAAAAAAAAAAAAAAAAAAAAAAAAAAAAAAAAAAAAAAAAAAAAAAAAAAAAAAAAAAAAAAAAAAAAAAAAAAAAAAAAAAAAAAAAAAAAAAAAAAAAAAAAAAAAAAAAAAAAAAAAAAAAAAAAAAAAAAAAAAAAAAAAAAAAAAAAAAAAAAAAAAAAAAAAAAAAAAAAAAAAAAAAAAAAAAAAAAAAAAAAAAAAAAAAAAAAAAAAAAAAAAAAAAAAAAAAAAAAAAAAAAAAAAAAAAAAAAAAAAAAAAAAAAAAAAAAAAAAAAAAAAAAAAAAAAAAAAAAAAAAAAAAAAAAAAAAAAAAAAAAAAAAAAAAAAAAAAAAAAAAAAAAAAAAAAAAAAAAAAAAAAAAAAAAAAAAAAAAAAAAAAAAAAAAAAAAAAAAAAAAAAAAAAAAAAAAAAAAAAAAAAAAAAAAAAAAAAAAAAAAAAAAAAAAAAAAAAAAAAAAAAAAAAAAAAAAAAAAAAAAAAAAAAAAAAAAAAAAAAAAAAAAAAAAAAAAAAAAAAAAAAAAAAAAAAAAAAAAAAAAAAAAAAAAAAAAAAAAAAAAAAAAAAAAAAAAAAAAAAAAAAAAAAAAAAAAAAAAAAAAAAAAAAAAAAAAAAAAAAAAAAAAAAAAAAAAAAAAAAAAAAAAAAAAAAAAAAAAAAAAAAAAAAAAAAAAAAAAAAAAAAAAAAAAAAAAAAAAAAAAAAAAAAAAAAAAAAAAAAAAAAAAAAAAAAAAAAAAAAAAAAAAAAAAAAAAAAAAAAAAAAAAAAAAAAAAAAAAAAAAAAAAAAAAAAAAAAAAAAAAAAAAAAAAAAAAAAAAAAAAAAAAAAAAAAAAAAAAAAAAAAAAAAAAAAAAAAAAAAAAAAAAAAAAAAAAAAAAAAAAAAAAAAAAAAAAAAAAAAAAAAAAAAAAAAAAAAAAAAAAAAAAAAAAAAAAAAAAAAAAAAAAAAAAAAAAAAAAAAAAAAAAAAAAAAAAAAAAAAAAAAAAAAAAAAAAAAAAAAAAAAAAAAAAAAAAAAAAAAAAAAAAAAAAAAAAAAAAAAAAAAAAAAAAAAAAAAAAAAAAAAAAAAAAAAAAAAAAAAAAAAAAAAAAAAAAAAAAAAAAAAAAAAAAAAAAAAAAAAAAAAAAAAAAAAAAAAAAAAAAAAAAAAAAAAAAAAAAAAAAAAAAAAAAAAAAAAAAAAAAAAAAAAAAAAAAAAAAAAAAAAAAAAAAAAAAAAAAAAAAAAAAAAAAAAAAAAAAAAAAAAAAAAAAAAAAAAAAAAAAAAAAAAAAAAAAAAAAAAAAAAAAAAAAAAAAAAAAAAAAAAAAAAAAAAAAAAAAAAAAAAAAAAAAAAAAAAAAAAAAAAAAAAAAAAAAAAAAAAAAAAAAAAAAAAAAAAAAAAAAAAAAAAAAAAAAAAAAAAAAAAAAAAAAAAAAAAAAAAAAAAAAAAAAAAAAAAAAAAAAAAAAAAAAAAAAAAAAAAAAAAAAAAAAAAAAAAAAAAAAAAAAAAAAAAAAAAAAAAAAAAAAAAAAAAAAAAAAAAAAAAAAAAAAAAAAAAAAAAAAAAAAAAAAAAAAAAAAAAAAAAAAAAAAAAAAAAAAAAAAAAAAAAAAAAAAAAAAAAAAAAAAAAAAAAAAAAAAAAAAAAAAAAAAAAAAAAAAAAAAAAAAAAAAAAAAAAAAAAAAAAAAAAAAAAAAAAAAAAAAAAAAAAAAAAAAAAAAAAAAAAAAAAAAAAAAAAAAAAAAAAAAAAAAAAAAAAAAAAAAAAAAAAAAAAAAAAAAAAAAAAAAAAAAAAAAAAAAAAAAAAAAAAAAAAAAAAAAAAAAAAAAAAAAAAAAAAAAAAAAAAAAAAAAAAAAAAAAAAAAAAAAAAAAAAAAAAAAAAAAAAAAAAAAAAAAAAAAAAAAAAAAAAAAAAAAAAAAAAAAAAAAAAAAAAAAAAAAAAAAAAAAAAAAAAAAAAAAAAAAAAAAAAAAAAAAAAAAAAAAAAAAAAAAAAAAAAAAAAAAAAAAAAAAAAAAAAAAAAAAAAAAAAAAAAAAAAAAAAAAAAAAAAAAAAAAAAAAAAAAAAAAAAAAAAAAAAAAAAAAAAAAAAAAAAAAAAAAAAAAAAAAAAAAAAAAAAAAAAAAAAAAAAAAAAAAAAAAAAAAAAAAAAAAAAAAAAAAAAAAAAAAAAAAAAAAAAAAAAAAAAAAAAAAAAAAAAAAAAAAAAAAAAAAAAAAAAAAAAAAAAAAAAAAAAAAAAAAAAAAAAAAAAAAAAAAAAAAAAAAAAAAAAAAAAAAAAAAAAAAAAAAAAAAAAAAAAAAAAAAAAAAAAAAAAAAAAAAAAAAAAAAAAAAAAAAAAAAAAAAAAAAAAAAAAAAAAAAAAAAAAAAAAAAAAAAAAAAAAAAAAAAAAAAAAAAAAAAAAAAAAAAAAAAAAAAAAAAAAAAAAAAAAAAAAAAAAAAAAAAAAAAAAAAAAAAAAAAAAAAAAAAAAAAAAAAAAAAAAAAAAAAAAAAAAAAAAAAAAAAAAAAAAAAAAAAAAAAAAAAAAAAAAAAAAAAAAAAAAAAAAAAAAAAAAAAAAAAAAAAAAAAAAAAAAAAAAAAAAAAAAAAAAAAAAAAAAAAAAAAAAAAAAAAAAAAAAAAAAAAAAAAAAAAAAAAAAAAAAAAAAAAAAAAAAAAAAAAAAAAAAAAAAAAAAAAAAAAAAAAAAAAAAAAAAAAAAAAAAAAAAAAAAAAAAAAAAAAAAAAAAAAAAAAAAAAAAAAAAAAAAAAAAAAAAAAAAAAAAAAAAAAAAAAAAAAAAAAAAAAAAAAAAAAAAAAAAAAAAAAAAAAAAAAAAAAAAAAAAAAAAAAAAAAAAAAAAAAAAAAAAAAAAAAAAAAAAAAAAAAAAAAAAAAAAAAAAAAAAAAAAAAAAAAOp5mX0AAAAAgNHe/r5f//Dr43P8SQBqE6ABAACACjabci/aNMAxAjQAAACQ0qnFuZ02DXCHAA0AAABkEqQ7HyBVAwsSoAEAAICI8obmXVRpoDYBGgAAAAhhkeJ8hxgN1CNAAwAAAHMozo2EaSAvARoAAADoQE2eRZ4GIhOgAQAAgA2Ccl6SNBCHAA0AAADLEZfXIUYDcwnQAAAAUI2+zC16NDCYAA0AAABpKMucQZUGziNAAwAAQFByM+OJ0UBfAjQAAADMoS8Tnx4NPEmABgAAgBOpzNSjSgPtBGgAAADoTHRmZfI08JMADQAAAH3oztBOp4ZFCNAAAABwkOIMfanSUI8ADQAAAK0UZ5hCmIa8BGgAAADYJjdDWJI0ZCFAAwAAgNYM6UnSEJMADQAAwCpUZliNKg3TCdAAAAAsQX0G2inX0IsADQAAwBIEaOA8gjXcIkADAABQn/oMjKdKw0WABgAAIDtxGQhOiWZlr7MPAAAAADvIzQCQiAANAADAuSRjAFiWAA0AAMBT9GUA4BYBGgAAgN1EZwCghQANAABAK90ZANhFgAYAAOAx6RkAOECABgAA4CbdGQB4hgANAACA0AwAnEKABgAACEcOBgBqEKABAACmEZoBqGHMRPv6+Bzwr9DXy+wDAAAALERxBlhQyWw6faKVvKolCdAAAACDTN/VAZiiWCoNOM6KXeFiPIIDAAAAAHgsYHr+9utgenQoAjQAAAAAcE/Y9Lzp4WkV6pEEaAAAgHPlWtoBoLz/o1mJHsAzoAEAADpQmQG4pVLlLDPvKr0pwQnQAAAAu5VZvwEYoF7rTD0H670dwQnQAADAElKvygCkVrh45hqvhd+IyDwDGgAAqCzXYgwAieQasurzLAI0AABQUK6VGACyyDhhpee5BGgAAKCUjIsxAEtpGVVxmmnqwRrnMq7MM6ABAIAiUm/IANBiQFGNM0/l4xoEaAAAILc4ezIAjNel0oYaprpzMQI0AAAwTqj9FgDq2VVvw85lDboSARoAADhL2LUWAAhOgy5DgAYAALpRnAGAXjToGgRoAADgKaIzAHASDboAARoAANhNdAYAxtCgsxOgAQCAxxRnAGAiGTovARoAAOqTjwGA7DTopARoAACoSXQGAOqRodMRoAEAoBrpGQAoT4nOQoAGAIBS1GcAYB0ydHwCNAAAFCE9AwBrkqEjE6ABACA96RkAWJwGHZYADQAA4xwuxZs7le4MAPCTDB2QAA0AAKdTigEAxtCgoxGgAQDgLLozAMB4GnQoAjQAAPQnPQMATKRBx/Fn9gEAAKAa9RkAAL4J0AAA0JP6DAAwnY9kcQjQAADQjVUHACAIH8yCeJ19AAAAqMCGAwAA1/wFNAAA7HPdmtVnAADY9DL7AAAAsM/b3/frrzXvkoA3vy1dXAYASGrz0x2DCdAAAKShBQMA0E6AjkCABgAgHyUaAICHBOgIBGgAAIroVaUbH8Tx89cEcQCAaNTnIARoAACKe1iHOy4nSjQAQATqcxwCNAAA9KRBAwDMpT6HIkADAMAplGgAgPHU52gEaAAAOJcSDQAwgPQckwANAADjiNEAAN1Jz5EJ0AAAMM3eHt24XMncAMAipOf4BGgAAKhMjAYASpKesxCgAQBgCUo0AJCU1pyaAA0AAMsRowGA6WTlRQjQAACwLiUaADib0Lw4ARoAADhIvwYAbtGd+SZAAwAAPanSDLM3bbg5AQbQnflFgAYAAMZZqgBeb+BjXn78LDurTSx1+wGMJz2zSYAGAAAYpG8Ated3pE0DHGYecZ8ADQAAMMeu6Gm9n0uhBvjFYKKRAA0AAAATiNpARrozewnQAAAAkINmDcyiO3OYAA0AAAB1iNRVHct/7geOkZvpSIAGAAAALpfwsbKxiMV8FRlzXswryfMy3o2kJkADAAAAR/gizWXNbdMd76UnX8itk0Rr9/73MZcADQAAAEAH3cPryuW05WJ+fXze+rWVLx0AAAAAAAAAAAAAAAAAAAAAAAAAAAAAAAAAAAAAAAAAAAAAAAAAAAAAAAAAAAAAAAAAAAAAAAAAAAAAAAAAAAAAAAAAAAAAAAAAAAAAAAAAAAAAAAAAAAAAAAAAAAAAAAAAAAAAAAAAAAAAAAAAAAAAAAAAAAAAAAAAAAAAAAAAAAAAAAAAAAAAAAAAAAAAAAAAAAAAAAAAAAAAAAAAAAAAAAAAAAAAAAAAAAAAAAAAAAAAAAAAAAAAAAAAAAAAAAAAAAAAAAAAAAAAAAAAAAAAAAAAAAAAAAAAAAAAAAAAAAAAAAAAAAAAAAAAAAAAAAAAAAAAAAAAAAAAAAAAAAAAAAAAAAAAAAAAAAAAAAAAAAAAAAAAAAAAAAAAAAAAAAAAAAAAAAAAAAAAAAAAAAAAAAAAAAAAAAAAAAAAAAAAAAAAAAAAAAAAAAAAAAAAAAAAAAAAAAAAAAAAAAAAAAAAAAAAAAAAAAAAAAAAAAAAAAAAAAAAAAAAAAAAAAAAAAAAAAAAAAAAAAAAAAAAAAAAAAAAAAAAAAAAAAAAAAAAAAAAAAAAAAAAAAAAAAAAAAAAAAAAAAAAAAAAAAAAAAAAAAAAAAAAAAAAAAAAAAAAAAAAAAAAAAAAAAAAAAAAAAAAAAAAAAAAAAAAAAAAAAAAAAAAAAAAAAAAAAAAAAAAAAAAAAAAAAAAAAAAAAAAAAAAAAAAAAAAAAAAAAAAAAAAAAAAAAAAAAAAAAAAAAAAAAAAAAAAAAAAAAAAAAAAAAAAAAAAAAAAAAAAAAAAAAAAAAAAAAAAAAAAAAAAAAAAAAAAAAAAAAAAAAAAAAAAAAAAAAAAAAAAAAAAAAAAAAAAAAAAAAAAAAAAAAAAAAAAAAAAAAAAAAAAAAAAAAAAAAAAAAAAAAAAAAAAAAAAAAAAAAAAAAAAAAAAAAAAAAAAAAAAAAAAAAAAAAAAAAAAAAAAAAAAAAAAAAAAAAAAAAAAAAAAAAAAAAAAAAAAAAAAAAAAAAAAAAAAAAAAAAAAAAAAAAAAAAAAAAAAAAAAAAAAAAAAAAAAAAAAAAAAAAAAAAAAAAAAAAAAAAAAAAAAAAAAAAAAAAAAAAAAAAAAAAAAAAAAAAAAAAAAAAAAAAAAAAAAAAAAAAAAAAAAAAAAAAAAAAAAAAAAAAAAAAAAAAAAAAAAAAAAAAAAAAAAAAAAAAAAAAAAAAAAAAAAAAAAAAAAAAAAAAAAAAAAAAAAAAAAAAAAAAAAAAAAAAAAAAAAAAAAAAAAAAAAAAAAAAAAAAAAAAAAAAAAAAAAAAAAAAAAAAAAAAAAAAAAAAAAAAAAAAAAAAAAAAAAAAAAAAAAAAAAAAAAAAAAAAAAAAAAAAAAAAAAAAAAAAAAAAAAAAAAAAAAAAAAAAAAAAAAAAAAAAAAAAAAAAAAAAAAAAAAAAAAAAAAAAAAAAAAAAAAAAAAAAAAAAAAAAAAAAAAAAAAAAAAAAAAAAAAAAAAAAAAAAAAAAAAAAAAAAAAAAAAAAAAAAAAAAAAAAAAAAAAAAAAAAAAAAAAAAAAAAAAAAAAAAAAAAAAAAAAAAAAAAAAAAAAAAAAAAAAAAAAAAAAAAAAAAAAAAAAAAAAAAAAAAAAAAAAAAAAAAAAAAAAAAAAAAAAAAAAAAAAAAAAAAAAAAAAAAAAAAAAAAAAAAAAAAAAAAAAAAAAAAAAAAAAAAAAAAAAAAAAAAAAAAAAAAAAAAAAAAAAAAAAAAAAAAAAAAAAAAAAAAAAAAAAAAAAAAAAAAAAAAAAAAAAAAAAAAAAAAAAAAAAAAAAAAAAAAAAAAAAAAAAAAAAAAAAAAAAAAAAAAAAAAAAAAAAAAAAAAAAAAAAAAAAAAAAAAAAAAA87R+l8GLuomG7qwAAAABJRU5ErkJggg==;" vertex="1" parent="ZThuotnmeRBw-XxC2VrP-23">
          <mxGeometry width="480" height="270" as="geometry" />
        </mxCell>
        <mxCell id="ZThuotnmeRBw-XxC2VrP-22" value="&lt;font color=&quot;#ffffff&quot;&gt;&lt;span style=&quot;font-size: 16px;&quot;&gt;&lt;b&gt;Mix Mask&lt;/b&gt;&lt;/span&gt;&lt;/font&gt;" style="text;html=1;align=center;verticalAlign=middle;resizable=0;points=[];autosize=1;strokeColor=none;fillColor=none;" vertex="1" parent="ZThuotnmeRBw-XxC2VrP-23">
          <mxGeometry width="90" height="30" as="geometry" />
        </mxCell>
        <mxCell id="ZThuotnmeRBw-XxC2VrP-25" value="" style="shape=flexArrow;endArrow=classic;html=1;rounded=0;fillColor=#60a917;strokeColor=#2D7600;" edge="1" parent="ZThuotnmeRBw-XxC2VrP-23">
          <mxGeometry width="50" height="50" relative="1" as="geometry">
            <mxPoint x="239.5" y="-20" as="sourcePoint" />
            <mxPoint x="239.5" y="30" as="targetPoint" />
          </mxGeometry>
        </mxCell>
        <mxCell id="ZThuotnmeRBw-XxC2VrP-16" value="" style="group" vertex="1" connectable="0" parent="1">
          <mxGeometry x="640" y="120" width="480" height="270" as="geometry" />
        </mxCell>
        <mxCell id="ZThuotnmeRBw-XxC2VrP-3" value="" style="shape=image;verticalLabelPosition=bottom;labelBackgroundColor=default;verticalAlign=top;aspect=fixed;imageAspect=0;image=data:image/png,iVBORw0KGgoAAAANSUhEUgAAB4AAAAQ4CAIAAABnsVYUAAAiKElEQVR4nO3dPW4c2RmG0TsCEweOCDgQqIyAF+BVGNqCHc+aHNtbELwK7YCZGsoYKZjQDmpcajeb9Xv/7zkRJbWAijp4+OGtEAAAAAAAAAAAAAAAAAAAAAAAAAAAAAAAAAAAAAAAAAAAAAAAAAAAAAAAAAAAAAAAAAAAAAAAAAAAAAAAAAAAAAAAAAAAAAAAAAAAAAAAAAAAAAAAAAAAAAAAAAAAAAAAAAAAAAAAAAAAAAAAAAAAAAAAAAAAAAAAAAAAAAAAAAAAAAAAAAAAAAAAAAAAAAAAAAAAAAAAAAAAAAAAAAAAAAAAAAAAAAAAAAAAAAAAAAAAAAAAAAAAAAAAAAAAAAAAAAAAAAAAAAAAAAAAAAAAAAAAAAAAAAAAAAAAAAAAAAAAAAAAAAAAAAAAAAAAAAAAAAAAAAAAAAAAAAAAAAAAAAAAAAAAAAAAAAAAAAAAAAAAAAAAAAAAAAAAAAAAAAAAAAAAAAAAAAAAAAAAAAAAAAAAAAAAAAAAAAAAAAAAAAAAAAAAAAAAAAAAAAAAAAAAAAAAAAAAAAAAAAAAAAAAAAAAAAAAAAAAAAAAAAAAAAAAAAAAAAAAAAAAAAAAAAAAAAAAAAAAAAAAAAAAAAAAAAAAAAAAAAAAAAAAAAAAAAAAAAAAAAAAAAAAAAAAAAAAAAAAAAAAAAAAAAAAAAAAAAAAAAAAAAAAAAAAAAAAAAAAAAAAAAAAAAAAAAAAAAAAAAAAAAAAAAAAAAAAAAAAAAAAAAAAAAAAAAAAAAAAAAAAAAAAAAAAAAAAAAAAAAAAAAAAAAAAAAAAAAAAAAAAAAAAAAAAAAAAAAAAAAAAAAAAAAAAAAAAAAAAAAAAAAAAAAAAAAAAAAAAAAAAAAAAAAAAAAAAAAAAAAAAAAAAAAAAAAAAAAAAAAAAAAAAAAAAAAAAAAAAAAAAAAAAAAAAAAAAAAAAAAAAAAAAAAAAAAAAAAAAAAAAAAAAAAAAAAAAAAAAAAAAAAAAAAAAAAAAAAAAAAAAAAAAAAAAAAAAAAAAAAAAAAAAAAAAAAAAAAAAAAAAAAAAAAAAAAAAAAAAAAAAAAAAAAAAAAAAAAAAAAAAAAAAAAAAAAAAAAAAAAAAAAAAAAAAAAAAAAAAAAAAAAAAAAAAAAAAAAAAAAAAAAAAAAAAAAAAAAAAAAAAAAAAAAAAAAAAAAAAAAAAAAAAAAAAAAAAAAAAAAAAAAAAAAAAAAAAAAAAAAAAAAAAAAAAAAAAAAAAAAAAAAAAAAAAAAAAAAAAAAAAAAAAAAAAAAAAAAAAAAAAAAAAAAAAAAAAAAAAAAAAAAAAAAAAAAAAAAAAAAAAAAAAAAAAAAAAAAAAAAAAAAAAAAAAAAAAAAAAAAAAAAAAAAAAAAAAAAAAAAAAAAAAAAAAAAAAAAAAAAAAAAAAAAAAAAAAAAAAAAAAAAAAAAAAAAAAAAAAAAAAAAAAAAAAAAAAAAAAAAAAAAAAAAAAAAAAAAAAAAAAAAAAAAAAAAAAAAAAAAAAAAAAAAAAAAAAAAAAAAAAAAAAAAAAAAAAAAAAAAAAAAAAAAAAAAAAAAAAAAAAAAAAAAAAAAAAAAAAAAAAAAAAAAAAAAAAAAAAAAAAAAAAAAAAAAAAAAAAAAAAAAAAAAAAAAAAAAAAAAAAAAAAAAAAAAAAAAAAAAAAAAAAAAAAAAAAAAAAAAAAAAAAAAAAAAAAAAAAAAAAAAAAAAAAAAAAAAAAAAAAAAAAAAAAAAAAAAAAAAAAAAAAAAAAAAAAAAAAAAAAAAAAAAAAAAAAAAAAAAAAAAAAAAAAAAAAAAAAAAAAAAAAAAAAAAAAAAAAAAAAAAAAAAAAAAAAAAAAAAAAAAAAAAAAAAAAAAAAAAAAAAAAAAAAAAAAAAAAAAAAAAAAAAAAAAAAAAAAAAAAAAAAAAAAAAAAAAAAAAAAAAAAAAAAAAAAAAAAAAAAAAAAAAAAAAAAAAAAAAAAAAAAAAAAAAAAAAAAAAAAAAAAAAAAAAAAAAAAAAAAAAAAAAAAAAAAAAAAAAAAAAAAAAAAAAAAAAAAAAAAAAAAAAAAAAAAAAAAAAAAAAAAAAAAAAAAAAAAAAAAAAAAAAAAAAAAAAAAAAAAAAAAAAAAAAAAAAAAAAAAAAAAAAAAAAAAAAAAAAAAAAAAAAAAAAAAAAAAAAAAAAAAAAAAAAAAAAAAAAAAAAAAAAAAAAAAAAAAAAAAAAAAAAAAAAAAAAAAAAAAAAAAAAAAAAAAAAAAAAAAAAAAAAAAAAAAAAAAAAAAAAAAAAAAAAAAAAAAAAAAAAAAAAAAAAAAAAAAAAAAAAAAAAAAAAAAAAAAAAAAAAAAAAAAAAAAAAAAAAAAAAAAAAAAAAAAAAAAAAAAAAAAAAAAAAAAAAAAAAAAAAAAAAAAAAAAAAAAAAAAAAAAAAAAAAAAAAAAAAAAAAAAAAAAAAAAAAAAAAAAAAAAAAAAAAAAAAAAAAAAAAAAAAAAAAAAAAAAAAAAAAAAAAAAAAAAAAAAAAAAAAAAAAAAAAAAAAAAAAAAAAAAAAAAAAAAAAAAAAAAAAAAAAAAAAAAAAAAAAAAAAAAAAAAAAAAAAAAAAAAAAAAAAAAAAAAAAAAAAAAAAAAAAAAAAAAAAAAAAAAAAAAAAAAAAAAAAAAAAAAAAAAAAAAAAAAAAAAAAAAAAAAAAAAAAAAAAAAAAAAAAAAAAAAAAAAAAAAAAAAAAAAAAAAAAAAAAAAAAAAAAAAAAAAAAAAAAAAAAAAAAAAAAAAAAAAAAAAAAAAAAAAAAAAAAAAAAAAAAAAAAAAAAAAAAAAAAAAAAAAAAAAAAAAAAAAAAAAAAAAAAAAAAAAAAAAAAAAAAAAAAAAAAAAAAAAAAAAAAAAAAAAAAAAAAAAAAAAAAAAAAAAAAAAAAAAAAAAAAAAAAAAAAAAAAAAAAAAAAAAAAAAAAAAAAAAAAAAAAAAAAAAAAAAAAAAAAAAAAAAAAAAAAAAAAAAAAAAAAAAAAAAAAAAAAAAAAAAAAAAAAAAAAAAAAAAAAAAAAAAAAAAAAAAAAAAAAAAAAAAAAAAAAAAAAAAAAAAAAAAAAAAAAAAAAAAAAAAAAAAAAAAAAAAAAAAAAAAAAAAAAAAAAAAAAAAAAAAAAAAAAAAAAAAAAAAAAAAAAAAAAAAAAAAAAAAAAAAAAAAAAAAAAAAAAAAAAAAAAAAAAAAAAAAAAAAAAAAAAAAAAAAAAAAAAAAAAAAAAAAAAAAAAAAAAAAAAAAAAAAAAAAAAAAAAAAAAAAAAAAAAAAAAAAAAAAAAAAAAAAAAAAAAAAAAAAAAAAAAAAAAAAAAAAAAAAAAAAAAAAAAAAAAAAAAAAAAAAAAAAAAAAAAAAAAAAAAAAAAAAAAAAAAAAAAAAAAAAAAAAAAAAAAAAAAAAAAAAAAAAAAAAAAAAAAAAAAAAAAAAAAAAAAAAAAAAAAAAAAAAAAAAAAAAAAAAAAAAAAAAAAAAAAAAAAAAAAAAAAAAAAAAAAAAAAAAAAAAAAAAAAAAAAAAAAAAAAAAAAAAAAAAAAAAAAAAAAAAAAAAAAAAAAAAAAAAAAAAAAAAAAAAAAAAAAAAAAAAAAAAAAAAAAAAAAAAAAAAAAAAAAAAAAAAAAAAAAAAAAAAAAAAAAAAAAAAAAAAAAAAAAAAAAAAAAAAAAAAAAAAAAAAAAAAAAAAAAAAAAAAAAAAAAAAAAAAAAAAAAAAAAAAAAAAAAAAAAAAAAAAAAAAAAAAAAAAAAAAAAAAAAAAAAAAAAAAAAAAAAAAAAAAAAAAAAAAAAAAAAAAAAAAAAAAAAAAAAAAAAAAAAAAAAAAAAAAAAAAAAAAAAAAAAAAAAAAAAAAAAAAAAAAAAAAAAAAAAAAAAAAAAAAAAAAAAAAAAAAAAAAAAAAAAAAAAAAAAAAAAAAAAAAAAAAAAAAAAAAAAAAAAAAAAAAAAAAAAAAAAAAAAAAAAAAAAAAAAAAAAAAAAAAAAAAAAAAAAAAAAAAAAAAAAAAAAAAAAAAAAAAAAAAAAAAAAAAAAAAAAAAAAAAAAAAAAAAAAAAAAAAAAAAAAAAAAAAAAAAAAAAAAAAAAAAAAAAAAAAAAAAAAAAAAAAAAAAAAAAAAAAAAAAAAAAAAAAAAAAAAAAAAAAAAAAAAAAAAAAAAAAAAAAAAAAAAAAAAAAAAAAAAAAAAAAAAAAAAAAAAAAAAAAAAAAAAAAAAAAAAAAAAAAAAAAAAAAAAAAAAAAAAAAAAAAAAAAAAAAAAAAAAAAAAAAAAAAAAAAAAAAAAAAAAAAAAAAAAAAAAAAAAAAAAAAAAAAAAAAAAAAAAAAAAAAAAAAAAAAAAAAAAAAAAAAAAAAAAAAAAAAAAAAAAAAAAAAAAAAAAAAAAAAAAAAAAAAAAAAAAAAAAAAAAAAAAAAAAAAAAAAAAAAAAAAAAAAAAAAAAAAAAAAAAAAAAAAAAAAAAAAAAAAAAAAAAAAAAAAAAAAAAAAAAAAAAAAAAAAAAAAAAAAAAAAAAAAAAAAAAAAAAAAAAAAAAAAAAAAAAAAAAAAAAAAAAAAAAAAAAAAAAAAAAAAAAAAAAAAAAAAAAAAAAAAAAAAAAAAAAAAAAAAAAAAAAAAAAAAAAAAAAAAAAAAAAAAAAAAAAAAAAAAAAAAAAAAAAAAAAAAAAAAAAAAAAAAAAAAAAAAAAAAAAAAAAAAAAAAAAAAAAAAAAAAAAAAAAAAAACgUr+UfgAAABjU69Pz9MPj5aXskwAAQCIfSj8AAACM7vXpeY7RAAAAAAAQkwYNAECXTHAAAEAVrgO0UQ4AAPogQAMAQBXeu4AWowEAaJcNaAAAqMJ7odk0BwAA7XIBDQAAdblbnN1BAwDQIgEaAABqZJEDAIAOmOAAAICWvD49G+UAAKAVAjQAANRo+dJZgwYAoAkmOAAAoGoLrdkcBwAAlROgAQCgAcsnz0o0AAB1EqABAKANq7MbMjQAALWxAQ0AAG1Y7cuGoQEAqI0LaAAAaIw5DgAAWiFAAwBAk2RoAADqZ4IDAACatJyYzXEAAFADARoAAFqlQQMAUDkTHAAA0DxzHAAA1EmABgCATsjQAADURoAGAHL751//tfCvf//337I9CfRny+yGEg0AQDYPpR8AABjCcnQGYpni8nKGfn161qABAMjDBTQAkMrG6OzkGVJwCg0AQA0EaAAgjl03zqIz5CFDAwBQlgANABxxeFJDeobMtjToIEMDAJCGAA0A7HagPuvOUJYMDQBAEQI0AHDEaoNWnKFCFjkAAMhMgAYAgLHI0AAAZCNAA8Cg9s5ouGiGzsjQAABkIEADwCgOvzYwqM/QKcPQAACkJkADQOcOd2fRGQbhFBoAgHQEaADojeIMHCBDAwCQggANAG07M6wx0Z2BiUUOAACiE6ABoFUunYnry/dPnz9+K/0UlOcUGgCAiARoAADg1mqG1qABANhCgAYAGNSX75+mHxw+8x7X0AAAnCRAA0ABB9Yz7GYQ0ZyeJwI0y2RoAAAOeyj9AADQv/PvCYSIbuozrHq8vKw26OkDMjQAADdcQANAfBGLs8Nn4rquzw6f2cspNAAAewnQABBBihtn6Zno1GfO29KggwwNAMD/CNAAcFCiYQ3dmRSMPhOXDA0AwEYCNADsozvTojlAS89EZJEDAIBVAjQArDDoDLBAhgYAYIEADQA/xWrNQjMwGhkaAIC7BGgABqU10zebGxQhQwMAcEOABmAgxjQYwfX7BtVn8tOgAQC4JkAD0Lm47wzUnancVJ91Z8ra0qCDDA0AMAYBGoDexC3OQXSmEQ6fqY0MDQBAEKAB6EP06Bx0Zxpx3Z1nAjSV2NiggwwNANAvARqAtnmXICNTn2mCU2gAgJEJ0AC06lh6FprpidkNGuLlhAAAYxKgAWjAgdYsNNO9L98/ic40xzU0AMBoBGgAKnJmT0NxZhzz4bMATYsMQwMADEWABqCwkyPOujPjuFl8Vp9plwYNADAOARqAAlw6AyBDAwCMQIAGIAfFGY6xtkH3ZGgAgL4J0ADEd3JVYyY9M7KbwY2gQdMvDRoAoGMCNADRnO/OijOEe+k5qM8MYGOG1qABANryUPoBABiFuAzHSM8M4vHysqVBT5+RoQEAWuECGoAlu46aJWY47/r8WXpmTBY5AAB64gIagN/FGm4Gjrm7vAEDmrKya2gAgD64gAYYzhSap2tlbwuESnjlILy1/RQ6yNAAALUSoAFGEf3AWXSGuKYGrTvDDYscAABNE6ABuhW3OMvNABQkQwMANEqABuiHG2cA+iZDAwA0R4AGaFvE6Cw3A1A/DRoAoC0CNEB7zkdnrRmApm3M0Bo0AEBxAjRA7U7mZq0ZgF7J0AAA9ROgAaoQfb45SM8AjEGGBgComQANUECK3HxNegZgKIahAQCqJUAD5JC6OAfRGYCxadAAAHUSoAGSUJwBID8ZGgCgNgI0QBxJi7PWDAAbbW/QQYYGAEhPgAY4JXp31poB4Dyn0AAAlRCgAfZRnAGgFRsztAYNAJCOAA2wLm50VpwBICfX0AAABQnQAD+l23EWnQGgIMPQAAClCNDAiJK+MPCa7gwA9ZChAQDyE6CBUYjOAIAGDQCQmQANdEtxBgDukqEBALIRoIF+5CnOcjMA9EGGBgDIQIAGGpa6OGvNANC3XQ06yNAAAPsJ0EBLUhRnlRkABucUGgAgHQEaqFeiA2fFGQB4S4YGAEhBgAbqIjoDAAUZ5QAAiEuABjLJ84bAG7ozALCXBg0AEJEADSQkOgMALdrboIMMDQDwDgEaiKlIcQ6iMwCQgAwNAHCeAA2cUqo4B9EZAMhChgYAOEOABo7I353lZgCgFA0aAOAwARrYJ2l6VpkBgGp5OSEAwAECNLAuUXSWmwGAFinRAADbPZR+AKAWBdecAQAa8nh52dWgpw/L0ADAmFxAw3CKh2aHzwBAH2xDAwCsEqChc8Vz80x3Birx5funzx+/lX4KoBPmOAAAlpnggK7Uk5snojNQlS/fP5V+BKA3U1A+cAoNADAIARraVltxDqIzUCXpGUhq7yo0AMA4BGhoUlXdWXEGKqc+Axlo0AAAdwnQ0JIi3VlfBpqmPgPZzPvOSjQAwEyAhgZk7s6KM9AN9RkowjA0AMBMgIZalF3VEJ2BzkjPQHEyNABAEKChiHoWnHVnoEvqM1CP5W3om3+aRzwAALrxS+kHgIHozgAZbKnPnz9+y/AkALM5NL9NzBo0ANA3ARqSq6E7K87AIDbePgvQQBGvT893+7IGDQB0zAQHJFE8OivOwIAsbwCV21iWF86lAQCa4wIaYirSnbVmgLCzPruABmrz3k60Bg0AtE6AhgjydGehGeA9e2+fBWigQho0ANAlARqOyFCc5WaAjQ4sbwjQQLVkaACgMwI0rMs5rKE7A+yiPgP9ea9Bz8RoAKAhAjT8VPDNgbozwDHGN4AurTboiRINANRPgGZ0ojNA07x7EOjYlgytQQMAlROgGY7iDNCN7fVZegbaJUMDAE0ToOlcwdw8050BEtkYoNVnoHUWOQCAdgnQdMiNM8AIttRn6RnohgYNADRKgKYH2YqzvgxQg9X0rDsDvTLHAQA0R4CmPRlys9AMUCfpGcApNADQFgGaqmUe09CdAWqmPgPMNmbooEQDAKUJ0NQl/3yz6AxQv7vp+fLj6/Uff/3zn3I9DkAVtjfoIEMDAOUI0FQhZ3dWnAHasnD4PDdo9RkYlgwNAFROgKYY8xoALFvd3AghXH58VZ+Bwe1q0EGGBgDyEqDJTXcGYNWW9Dyx+wwQ9jfoIEMDALkI0GRiZAOAjTbWZ+kZ4JoGTXG//eM/yx/4w68SBMCIfPuTUJ7oLDcD9GRLfZaeAd5jjoMiVtPzRIAGGJNvf+LL0J1FZ4D+SM8AURw4hQ5KNEdtTM8TARpgTL79iSDbvIbuDNAfc88A0R1r0BMlmu121ecgQAOM6qH0A9Aq7xIE4Dz1GSCFKSIfy9CvT88aNAAQkV8/so/uDEAsXjYIkMHha2gZmi1McACwyrc/m2TuzkF6Buiaw2eAnCxykNT2Bi1AA4zJBAcrpGcA4prq8+XH1/lvnv74l7cfk54BYnm8vBxu0NN/lKEBgMP8+pH7TG0AkMLb+hzuBWj1GSCFM6fQQYZm0ZY7aBfQAGPy7c+t1OlZawYY1ry8MQdot88ARRiGJqn3YrQADTAm3/6kLc5yMwDhXnoODp8BinINTR7XMVqABhiTb//hZNjWEJ0BmN1Nz5ObAK0+A2R2skEHGRoA2ECAHoLoDEARc30Oa7vP6jNAEecbdJChAYBFAnTnzGsAUMp1fQ6Lu8/qM0BZTqEBgHQE6G6lS8+6MwDLbtLzAukZoBIaNACQiADdoRTpWXQGYIvt6XkiQANURYYGAKJ7KP0AVERlBuAM9RmgdY+Xl5MN+vXpWYMGAK65gO7T8hG00AxAdLvqs/QMUL+TJVqGBgAmAjQAcJbRZ4BeGeUAAE4SoAGA4xw+A3TvfIMOMjQADEyABgAOUp8BxuEUGgA4RoAGAI5QnwEGJEMDAHsJ0ADAPtIzwMgscgAAuwjQAMAO6jMAURp0kKEBYAwCNACwlfoMwMwpNACwhQANAKzblZ6D+gwwDBkaAFgmQAMAS6RnAFbJ0ADAewRoAOC+vek5qM8AA4s1DB2UaADoiwANANyhPgNwgPcTAgA3BGgA4Jb6DMAZMjQAMBOgAYD/Y/QZgPMscgAAEwEaAPidw2cAIorYoIMMDQDNEqABgBDUZwDScAoNAIMToAEAsxsApCVDA8CwBGgAGJrDZwCyMcoBAAMSoAFgUAfSc1CfAThHgwaA0QjQADAi9RmAgmRoABiHAA0Aw1GfASguboMOMjQA1EqABoCBSM8AVEWGBoDuCdAAMAr1GYAKRW/QQYYGgJoI0AAwBPUZgJo5hQaAXgnQANA/9RmAJriGBoD+CNAA0DPpGYDmpMjQQYkGgEI+lH4AACAV9RmAFiUqxYm6NgCwTIAGgD6pzwC06/Hy4mAZAPogQANAh9RnADqgQQNAB2xAA0BvDtRn6RmAmkVczxC1ASAzARoA+uHwGYBexV1wlqEBIBsTHADQiWP1GQCaEDcZvz49eychAOThAhoAeuD2GYBxuIYGgIYI0ADQNukZgDHJ0ADQBAEaAFp1eHNDfQagG9GXNJRoAIhLgAaA9pyZe1afAeiMBg0ANROgAaAx6jMAvCVDA0CdBGgAaInZDQB4jwYNABUSoAGgDQ6fAWALGRoAqvKh9AMAAOvUZwDYKHovjl60AWAoLqABoHZmNwDgAKfQAFADARoAqqY+A8BJcUu0DA0AuwjQAFApsxsAENHr0/Pj5SVijFaiAWALARoAaqQ+A0A6sTK0Bg0AqwRoAKiO+gwAGcjQAJCBAA0AdTH6DADZaNAAkJoADQAVUZ8BIDOr0ACQlAANAFUwuwEABTmFBoBEBGgAqILbZwAoToYGgOgEaAAoTHoGgKrI0AAQkQANAMWY3QCAOhmGBoBYBGgAKEN9BoDKydAAcN6H0g8AAOzw+eM39RkA8ohYjSO2bABoiwtoACjgwPmz7gwApViFBoDDBGgAyEp6BoAWmeMAgGNMcABA1dRnAKjB4+UlVjg2xwHAUFxAA0ABy3fQojMAVO58RHYHDcAgBGgAAAA44mSG1qABGIEADQAAAMfJ0ACwwAY0AAAAHBdxHhoA+iNAAwAAwFkyNADcZYIDAAAAItu4y6FZA9A9ARoAAABSWSjR6jMAAAAAAAAAAAAAAAAAAAAAAAAAAAAAAAAAAAAAAAAAAAAAAAAAAAAAAAAAAAAAAAAAAAAAAAAAAAAAAAAAAAAAAAAAAAAAAAAAAAAAAAAAAAAAAAAAAAAAAAAAAAAAAAAAAAAAAAAAAAAAAAAAAAAAAAAAAAAAAAAAAAAAAAAAAAAAAAAAAAAAAAAAAAAAAAAAAAAAAAAAAAAAAAAAAAAAAAAAAAAAAAAAAAAAAAAAAAAAAAAAAAAAAAAAAAAAAAAAAAAAAAAAAAAAAAAAAAAAAAAAAAAAAAAAAAAAAAAAAAAAAAAAAAAAAAAAAAAAAAAAAAAAAAAAAAAAAAAAAAAAAAAAAAAAAAAAAAAAAAAAAAAAAAAAAAAAAAAAAAAAAAAAAAAAAAAAAAAAAAAAAAAAAAAAAAAAAAAAAAAAAAAAAAAAAAAAAAAAAAAAAAAAAAAAAAAAAAAAAAAAAAAAAAAAAAAAAAAAAAAAAAAAAAAAAAAAAAAAAAAAAAAAAAAAAAAAAAAAAAAAAAAAAAAAAAAAAAAAAAAAAAAAAAAAAAAAAAAAAAAAAAAAAAAAAAAAAAAAAAAAAAAAAAAAAAAAAAAAAAAAAAAAAAAAAAAAAAAAAAAAAAAAAAAAAAAAAAAAAAAAAAAAAAAAAAAAAAAAAAAAAAAAAAAAAAAAAAAAAAAAAAAAAAAAAAAAAAAAAAAAAAAAAAAAAAAAAAAAAAAAAAAAAAAAAAAAAAAAAAAAAAAAAAAAAAAAAAAAAAAAAAAAAAAAAAAAAAAAAAAAAAAAAAAAAAAAAAAAAAAAAAAAAAAAAAAAAAAAAAAAAAAAAAAAAAAAAAAAAAAAAAAAAAAAAAAAAAAAAAAAAAAAAAAAAAAAAAAAAAAAAAAAAAAAAAAAAAAAAAAAAAAAAAAAAAAAAAAAAAAAAAAAAAAAAAAAAAAAAAAAAAAAAAAAAAAAAAAAAAAAAAAAAAAAAAAAAAAAAAAAAAAAAAAAAAAAAAAAAAAAAAAAAAAAAAAAAAAAAAAAAAAAAAAAAAAAAAAAAAAAAAAAAAAAAAAAAAAAAAAAAAAAAAAAAAAAAAAAAAAAAAAAAAAAAAAAAAAAAAAAAAAAAAAAAAAAAAAAAAAAAAAAAAAAAAAAAAAAAAAAAAAAAAAAAAAAAAAAAAAAAAAAAAAAAAAAAAAAAAAAAAAAAAAAAAAAAAAAAAAAAAAAAAAAAAAAAAAAAAAAAAAAAAAAAAAAAAAAAAAAAAAAAAAAAAAAAAAAAAAAAAAAAAAAAAAAAAAAAAAAAAAAAAAAAAAAAAAAAAAAAAAAAAAAAAAAAAAAAAAAAAAAAAAAAAAAAAAAAAAAAAAAAAAAAAAAAAAAAAAAAAAAAAAAAAAAAAAAAAAAAAAAAAAAAAAAAAAAAAAAAAAAAAAAAAAAAAAAAAAAAAAAAAAAAAAAAAAAAAAAAAAAAAAAAAAAAAAAAAAAAAAAAAAAAAAAAAAAAAAAAAAAAAAAAAAAAAAAAAAAAAAAAAAAAAAAAAAAAAAAAAAAAAAAAAAAAAAAAAAAAAAAAAAAAAAAAAAAAAAAAAAAAAAAAAAAAAAAAAAAAAAAAAAAAAAAAAAAAAAAAAAAAAAAAAAAAAAAAAAAAAAAAAAAAAAAAAAAAAAAAAAAAAAAAAAAAAAAAAAAAAAAAAAAAAAAAAAAAAAAAAAAAAAAAAAAAAAAAAAAAAAAAAAAAAAAAAAAAAAAAAAAAAAAAAAAAAAAAAAAAAAAAAAAAAAAAAAAAAAAAAAAAAAAAAAAAAAAAAAAAAAAAAAAAAAAAAAAAAAAAAAAAAAAAAAAAAAAAAAAAAAAAAAAAAAAAAAAAAAAAAAAAAAAAAAAAAAAAAAAAAAAAAAAAAAAAAAAAAAAAAAAAAAAAAAAAAAAAAAAAAAAAAAAAAAAAAAAAAAAjOC/wo97IvVz+KgAAAAASUVORK5CYII=;" vertex="1" parent="ZThuotnmeRBw-XxC2VrP-16">
          <mxGeometry width="480" height="270" as="geometry" />
        </mxCell>
        <mxCell id="ZThuotnmeRBw-XxC2VrP-15" value="&lt;font style=&quot;color: rgb(255, 255, 255); font-size: 16px;&quot;&gt;&lt;b&gt;Training Data&lt;/b&gt;&lt;/font&gt;" style="text;html=1;align=center;verticalAlign=middle;resizable=0;points=[];autosize=1;strokeColor=none;fillColor=none;" vertex="1" parent="ZThuotnmeRBw-XxC2VrP-16">
          <mxGeometry width="120" height="30" as="geometry" />
        </mxCell>
        <mxCell id="ZThuotnmeRBw-XxC2VrP-14" value="" style="group" vertex="1" connectable="0" parent="1">
          <mxGeometry x="640" y="400" width="480" height="270" as="geometry" />
        </mxCell>
        <mxCell id="ZThuotnmeRBw-XxC2VrP-4" value="" style="shape=image;verticalLabelPosition=bottom;labelBackgroundColor=default;verticalAlign=top;aspect=fixed;imageAspect=0;image=data:image/png,iVBORw0KGgoAAAANSUhEUgAAB4AAAAQ4CAIAAABnsVYUAAAj4ElEQVR4nO3dPa4cxxWA0ZbB1BEBBwKZCATs3PAiDHkDBuzYK9AqtAx7CSK8Cu2AUKIHZoy0AQdtj8bzZnr6p7rq1q1zIoocgfXmDdHsD5e3pwkAAAAAAAAAAAAAAAAAAAAAAAAAAAAAAAAAAAAAAAAAAAAAAAAAAAAAAAAAAAAAAAAAAAAAAAAAAAAAAAAAAAAAAAAAAAAAAAAAAAAAAAAAAAAAAAAAAAAAAAAAAAAAAAAAAAAAAAAAAAAAAAAAAAAAAAAAAAAAAAAAAAAAAAAAAAAAAAAAAAAAAAAAAAAAAAAAAAAAAAAAAAAAAAAAAAAAAAAAAAAAAAAAAAAAAAAAAAAAAAAAAAAAAAAAAAAAAAAAAAAAAAAAAAAAAAAAAAAAAAAAAAAAAAAAAAAAAAAAAAAAAAAAAAAAAAAAAAAAAAAAAAAAAAAAAAAAAAAAAAAAAAAAAAAAAAAAAAAAAAAAAAAAAAAAAAAAAAAAAAAAAAAAAAAAAAAAAAAAAAAAAAAAAAAAAAAAAAAAAAAAAAAAAAAAAAAAAAAAAAAAAAAAAAAAAAAAAAAAAAAAAAAAAAAAAAAAAAAAAAAAAAAAAAAAAAAAAAAAAAAAAAAAAAAAAAAAAAAAAAAAAAAAAAAAAAAAAAAAAAAAAAAAAAAAAAAAAAAAAAAAAAAAAAAAAAAAAAAAAAAAAAAAAAAAAAAAAAAAAAAAAAAAAAAAAAAAAAAAAAAAAAAAAAAAAAAAAAAAAAAAAAAAAAAAAAAAAAAAAAAAAAAAAAAAAAAAAAAAAAAAAAAAAAAAAAAAAAAAAAAAAAAAAAAAAAAAAAAAAAAAAAAAAAAAAAAAAAAAAAAAAAAAAAAAAAAAAAAAAAAAAAAAAAAAAAAAAAAAAAAAAAAAAAAAAAAAAAAAAAAAAAAAAAAAAAAAAAAAAAAAAAAAAAAAAAAAAAAAAAAAAAAAAAAAAAAAAAAAAAAAAAAAAAAAAAAAAAAAAAAAAAAAAAAAAAAAAAAAAAAAAAAAAAAAAAAAAAAAAAAAAAAAAAAAAAAAAAAAAAAAAAAAAAAAAAAAAAAAAAAAAAAAAAAAAAAAAAAAAAAAAAAAAAAAAAAAAAAAAAAAAAAAAAAAAAAAAAAAAAAAAAAAAAAAAAAAAAAAAAAAAAAAAAAAAAAAAAAAAAAAAAAAAAAAAAAAAAAAAAAAAAAAAAAAAAAAAAAAAAAAAAAAAAAAAAAAAAAAAAAAAAAAAAAAAAAAAAAAAAAAAAAAAAAAAAAAAAAAAAAAAAAAAAAAAAAAAAAAAAAAAAAAAAAAAAAAAAAAAAAAAAAAAAAAAAAAAAAAAAAAAAAAAAAAAAAAAAAAAAAAAAAAAAAAAAAAAAAAAAAAAAAAAAAAAAAAAAAAAAAAAAAAAAAAAAAAAAAAAAAAAAAAAAAAAAAAAAAAAAAAAAAAAAAAAAAAAAAAAAAAAAAAAAAAAAAAAAAAAAAAAAAAAAAAAAAAAAAAAAAAAAAAAAAAAAAAAAAAAAAAAAAAAAAAAAAAAAAAAAAAAAAAAAAAAAAAAAAAAAAAAAAAAAAAAAAAAAAAAAAAAAAAAAAAAAAAAAAAAAAAAAAAAAAAAAAAAAAAAAAAAAAAAAAAAAAAAAAAAAAAAAAAAAAAAAAAAAAAAAAAAAAAAAAAAAAAAAAAAAAAAAAAAAAAAAAAAAAAAAAAAAAAAAAAAAAAAAAAAAAAAAAAAAAAAAAAAAAAAAAAAAAAAAAAAAAAAAAAAAAAAAAAAAAAAAAAAAAAAAAAAAAAAAAAAAAAAAAAAAAAAAAAAAAAAAAAAAAAAAAAAAAAAAAAAAAAAAAAAAAAAAAAAAAAAAAAAAAAAAAAAAAAAAAAAAAAAAAAAAAAAAAAAAAAAAAAAAAAAAAAAAAAAAAAAAAAAAAAAAAAAAAAAAAAAAAAAAAAAAAAAAAAAAAAAAAAAAAAAAAAAAAAAAAAAAAAAAAAAAAAAAAAAAAAAAAAAAAAAAAAAAAAAAAAAAAAAAAAAAAAAAAAAAAAAAAAAAAAAAAAAAAAAAAAAAAAAAAAAAAAAAAAAAAAAAAAAAAAAAAAAAAAAAAAAAAAAAAAAAAAAAAAAAAAAAAAAAAAAAAAAAAAAAAAAAAAAAAAAAAAAAAAAAAAAAAAAAAAAAAAAAAAAAAAAAAAAAAAAAAAAAAAAAAAAAAAAAAAAAAAAAAAAAAAAAAAAAAAAAAAAAAAAAAAAAAAAAAAAAAAAAAAAAAAAAAAAAAAAAAAAAAAAAAAAAAAAAAAAAAAAAAAAAAAAAAAAAAAAAAAAAAAAAAAAAAAAAAAAAAAAAAAAAAAAAAAAAAAAAAAAAAAAAAAAAAAAAAAAAAAAAAAAAAAAAAAAAAAAAAAAAAAAAAAAAAAAAAAAAAAAAAAAAAAAAAAAAAAAAAAAAAAAAAAAAAAAAAAAAAAAAAAAAAAAAAAAAAAAAAAAAAAAAAAAAAAAAAAAAAAAAAAAAAAAAAAAAAAAAAAAAAAAAAAAAAAAAAAAAAAAAAAAAAAAAAAAAAAAAAAAAAAAAAAAAAAAAAAAAAAAAAAAAAAAAAAAAAAAAAAAAAAAAAAAAAAAAAAAAAAAAAAAAAAAAAAAAAAAAAAAAAAAAAAAAAAAAAAAAAAAAAAAAAAAAAAAAAAAAAAAAAAAAAAAAAAAAAAAAAAAAAAAAAAAAAAAAAAAAAAAAAAAAAAAAAAAAAAAAAAAAAAAAAAAAAAAAAAAAAAAAAAAAAAAAAAAAAAAAAAAAAAAAAAAAAAAAAAAAAAAAAAAAAAAAAAAAAAAAAAAAAAAAAAAAAAAAAAAAAAAAAAAAAAAAAAAAAAAAAAAAAAAAAAAAAAAAAAAAAAAAAAAAAAAAAAAAAAAAAAAAAAAAAAAAAAAAAAAAAAAAAAAAAAAAAAAAAAAAAAAAAAAAAAAAAAAAAAAAAAAAAAAAAAAAAAAAAAAAAAAAAAAAAAAAAAAAAAAAAAAAAAAAAAAAAAAAAAAAAAAAAAAAAAAAAAAAAAAAAAAAAAAAAAAAAAAAAAAAAAAAAAAAAAAAAAAAAAAAAAAAAAAAAAAAAAAAAAAAAAAAAAAAAAAAAAAAAAAAAAAAAAAAAAAAAAAAAAAAAAAAAAAAAAAAAAAAAAAAAAAAAAAAAAAAAAAAAAAAAAAAAAAAAAAAAAAAAAAAAAAAAAAAAAAAAAAAAAAAAAAAAAAAAAAAAAAAAAAAAAAAAAAAAAAAAAAAAAAAAAAAAAAAAAAAAAAAAAAAAAAAAAAAAAAAAAAAAAAAAAAAAAAAAAAAAAAAAAAAAAAAAAAAAAAAAAAAAAAAAAAAAAAAAAAAAAAAAAAAAAAAAAAAAAAAAAAAAAAAAAAAAAAAAAAAAAAAAAAAAAAAAAAAAAAAAAAAAAAAAAAAAAAAAAAAAAAAAAAAAAAAAAAAAAAAAAAAAAAAAAAAAAAAAAAAAAAAAAAAAAAAAAAAAAAAAAAAAAAAAAAAAAAAAAAAAAAAAAAAAAAAAAAAAAAAAAAAAAAAAAAAAAAAAAAAAAAAAAAAAAAAAAAAAAAAAAAAAAAAAAAAAAAAAAAAAAAAAAAAAAAAAAAAAAAAAAAAAAAAAAAAAAAAAAAAAAAAAAAAAAAAAAAAAAAAAAAAAAAAAAAAAAAAAAAAAAAAAAAAAAAAAAAAAAAAAAAAAAAAAAAAAAAAAAAAAAAAAAAAAAAAAAAAAAAAAAAAAAAAAAAAAAAAAAAAAAAAAAAAAAAAAAAAAAAAAAAAAAAAAAAAAAAAAAAAAAAAAAAAAAAAAAAAAAAAAAAAAAAAAAAAAAAAAAAAAAAAAAAAAAAAAAAAAAAAAAAAAAAAAAAAAAAAAAAAAAAAAAAAAAAAAAAAAAAAAAAAAAAAAAAAAAAAAAAAAAAAAAAAAAAAAAAAAAAAAAAAAAAAAAAAAAAAAAAAAAAAAAAAAAAAAAAAAAAAAAAAAAAAAAAAAAAAAAAAAAAAAAAAAAAAAAAAAAAAAAAAAAAAAAAAAAAAAAAAAAAAAAAAAAAAAAAAAAAAAAAAAAAAAAAAAAAAAAAAAAAAAAAAAAAAAAAAAAAAAAAAAAAAAAAAAAAAAAAAAAAAAAAAAAAAAAAAAAAAAAAAAAAAAAAAAAAAAAAAAAAAAAAAAAAAAAAAAAAAAAAAAAAAAAAAAAAAAAAAAAAAAAAAAAAAAAAAAAAAAAAAAAAAAAAAAAAAAAAAAAAAAAAAAAAAAAAAAAAAAAAAAAAAAAAAAAAAAAAAAAAAAAAAAAAAAAAAAAAAAAAAAAAAAAAAAAAAAAAAAAAAAAAAAAAAAAAAAAAAAAAAAAAAAAAAAAAAAAAAAAAAAAAAAAAAAAAAAAAAAAAAAAAAAAAAAAAAAAAAAAAAAAAAAAAAAAAAAAAAAAAAAAAAAAAAAAAAAAAAAAAAAAAAAAAAAAAAAAAAAAAAAAAAAAAAAAAAAAAAAAAAAAAAAAAAAAAAAAAAAAAAAAAAAAAAAAAAAAAAAAAAAAAAAAAAAAAAAAAAAAAAAAAAAAAAAAAAAAAAAAAAAAAAAAAAAAAAAAAAAAAAAAAAAAAAAAAAAAAAAAAAAAAAAAAAAAAAAAAAAAAAAAAAAAAAAAAAAAAAAAAAAAAAAAAAAAAAAAAAAAAAAAAAAAAAAAAAAAAAAAAAAAAAAAAAAAAAAAAAAAAAAAAAAAAAAAAAAAAAAAAAAAAAAAAAAAAAAAAAAAAAAAAAAAAAAAAAAAAAAAAAAAAAAAgvqq9QEAAGBQX959mH/w9uVT25MAAMBJftP6AAAAMLov7z5cYjQAAAAAAJSkQQMAkJIVHAAAEMJ1gLaUAwCAHARoAAAI4dEEtBgNAEC/7IAGAIAQHoVmqzkAAOiXCWgAAIjlbnE2Bw0AQI8EaAAAiMhGDgAAErCCAwAAevLl3QdLOQAA6IUADQAAES1POmvQAAB0wQoOAAAIbaE1W8cBAEBwAjQAAHRgeeRZiQYAICYBGgAA+vB07YYMDQBANHZAAwBAH572ZYuhAQCIxgQ0AAB0xjoOAAB6IUADAECXZGgAAOKzggMAALq0nJit4wAAIAIBGgAAeqVBAwAQnBUcAADQPes4AACISYAGAIAkZGgAAKIRoAGA2v75538t/Orf//23aieBfNas3VCiAQCo5k3rAwAAQ1iOzkApc1xeztBf3n3QoAEAqMMENABwlpXR2cgznMEoNAAAEQjQAEAZm2acRWeoQ4YGAKAtARoA2GP3Sg3pGSpb06AnGRoAgHMI0ADAZjvqs+4MbcnQAAA0IUADAHs8bdCKMwRkIwcAAJUJ0AAAMBYZGgCAagRoABjU1jUaJpohGRkaAIAKBGgAGMXuxwZO6jMkZTE0AABnE6ABILnd3Vl0hkEYhQYA4DwCNABkozgDO8jQAACcQYAGgL4dWawx052BmY0cAAAUJ0ADQK9MOlPWx8/vv/3659anoD2j0AAAFCRAAwAAt55maA0aAIA1BGgAgEF9/Px+/oHBZx4xDQ0AwEECNAA0sGN7hr0ZFHRJzzMBmmUyNAAAu71pfQAAyO/4cwKhoJv6DE+9ffn0tEHPL5ChAQC4YQIaAMorWJwNPlPWdX02+MxWRqEBANhKgAaAAs6YcZaeKU595rg1DXqSoQEA+B8BGgB2Ommxhu7MGSx9piwZGgCAlQRoANhGd6ZHlwAtPVOQjRwAADwlQAPAExY6AyyQoQEAWCBAA8CvSrVmoRkYjQwNAMBdAjQAg9Kayc3ODZqQoQEAuCFAAzAQyzQYwfXzBtVn6tOgAQC4JkADkFzZZwbqzgQ312fdmbbWNOhJhgYAGIMADUA2ZYvzJDrTCYPPRCNDAwAwCdAA5FA8Ok+6M5247s4XAjRBrGzQkwwNAJCXAA1A3zxLkJGpz3TBKDQAwMgEaAB6tS89C81kYu0GHfFwQgCAMQnQAHRgR2sWmknv4+f3ojPdMQ0NADAaARqAQI7s01CcGcdl8FmApkcWQwMADEWABqCxg0ucdWfGcbPxWX2mXxo0AMA4BGgAGjDpDIAMDQAwAgEagBoUZ9jHtg3Sk6EBAHIToAEo7+BWjQvpmZHdLNyYNGjy0qABABIToAEo5nh3VpxhupeeJ/WZAazM0Bo0AEBf3rQ+AACjEJdhH+mZQbx9+bSmQc+vkaEBAHphAhqAJZuGmiVmOO56/Fl6Zkw2cgAAZGICGoD/KrW4Gdjn7uYNGNCclU1DAwDkYAIaYDhzaJ6nlT0tEILwyEF4bf0o9CRDAwBEJUADjKL4gLPoDGXNDVp3hhs2cgAAdE2ABkirbHGWmwFoSIYGAOiUAA2QhxlnAHKToQEAuiNAA/StYHSWmwGIT4MGAOiLAA3Qn+PRWWsGoGsrM7QGDQDQnAANEN3B3Kw1A5CVDA0AEJ8ADRBC8fXNk/QMwBhkaACAyARogAbOyM3XpGcAhmIxNABAWAI0QA1nF+dJdAZgbBo0AEBMAjTAKRRnAKhPhgYAiEaABijj1OKsNQPASusb9CRDAwCcT4AGOKR4d9aaAeA4o9AAAEEI0ADbKM4A0IuVGVqDBgA4jwAN8FzZ6Kw4A0BNpqEBABoSoAF+dd4eZ9EZABqyGBoAoBUBGhjRqQ8MvKY7A0AcMjQAQH0CNDAK0RkA0KABACoToIG0FGcA4C4ZGgCgGgEayKNOcZabASAHGRoAoAIBGujY2cVZawaA3DY16EmGBgDYToAGenJGcVaZAWBwRqEBAM4jQANxnTTgrDgDAK/J0AAAZxCggVhEZwCgIUs5AADKEqCBSuo8IfCG7gwAbKVBAwAUJEADJxKdAYAebW3QkwwNAPCAAA2U1KQ4T6IzAHACGRoA4DgBGjikVXGeRGcAoAoZGgDgCAEa2KN+d5abAYBWNGgAgN0EaGCbU9OzygwAhOXhhAAAOwjQwHMnRWe5GQDokRINALDem9YHAKJouM0ZAKAjb18+bWrQ84tlaABgTCagYTjNQ7PBZwAgB7uhAQCeEqAhuea5+UJ3BoL4+Pn9t1//3PoUQBLWcQAALLOCA1KJk5tnojMQysfP71sfAchmDso7RqEBAAYhQEPfohXnSXQGQpKegVNt3QoNADAOARq6FKo7K85AcOozUIEGDQBwlwANPWnSnfVloGvqM1DNZb+zEg0AcCFAQwcqd2fFGUhDfQaasBgaAOBCgIYo2m7VEJ2BZKRnoDkZGgBgEqChiTgbnHVnICX1GYhjeTf0zS9dlngAAKTxVesDwEB0Z4AK1tTnb7/+ucJJAC4uofl1YtagAYDcBGg4XYTurDgDg1g5+yxAA018effhbl/WoAGAxKzggFM0j86KMzAgmzeA4FaW5YVxaQCA7piAhpKadGetGWDaWJ9NQAPRPNoTrUEDAL0ToKGAOt1ZaAZ4ZOvsswANBKRBAwApCdCwR4XiLDcDrLRj84YADYQlQwMAyQjQ8FzNxRq6M8Am6jOQz6MGfSFGAwAdEaDhVw2fHKg7A+xj+QaQ0tMGPVOiAYD4BGhGJzoDdM2zB4HE1mRoDRoACE6AZjiKM0Aa6+uz9Az0S4YGALomQJNcw9x8oTsDnGRlgFafgd7ZyAEA9EuAJiEzzgAjWFOfpWcgDQ0aivvmu7+8/smfvv+h/kkAchOgyaBacdaXASJ4mp51ZyAr6zhg2d2mXIo2DbCPAE1/KuRmoRkgJukZwCg0XDu1OK+nTQMsEKAJrfIyDd0ZIDL1GeBiZYaelGiSCtKdd5CqgQEJ0MRSf32z6AwQ3930/PLLj9f/+Y/f/67WcQBCWN+gJxmabvUbmjdRpYHcBGhCqNmdFWeAviwMPl8atPoMDEuGJplBivMCMRrIR4CmGes1AFj2dOfGNE0vv/yoPgOD29SgJxmaYBTnlYRpoF8CNLXpzgA8tSY9z+x9Bpi2N+hJhuYcanIr8jQQmQBNJZZsALDSyvosPQNc06A5g6DcL0kaiEOA5kR1orPcDJDJmvosPQM8Yh0H64nL4xCjgbYEaMqr0J1FZ4B8pGeAInaMQk9KdEb6Mo/o0UBlAjQFVFuvoTsD5GPdM0Bx+xr0TImOT1nmDKo0cB4Bmp08SxCA49RngPPsztAadChyM/WJ0UBZAjTb6M4AlOJhgwAVyNDB6cvEp0cDBwnQrFK5O0/SM0BqBp8BarKRozmVmXxUaWA9AZonpGcAyprr88svP15+5t1v//j6ZdIzQEFHGvQkQ+8iOjMyeRq4JkBzn1UbAJzhdX2e7gVo9RngDDJ0BbozrKdTwyAEaG6dnZ61ZoBhXTZvXAK02WeAJiyGLkhxhrJUachHgObc4iw3AzDdS8+TwWeApkxD76Y4QxPCNPRLgB5Ohd0aojMAF3fT8+wmQKvPAJUdbNDTGBlaboawJGnohQA9BNEZgCYu9Xl6tvdZfQZo4niDnhJlaK0ZeidJQ0wCdHLWawDQynV9nhb3PqvPAG0NNQqtMsNoVGloToBO67z0rDsDsOwmPS+QngGCGKRBq8/Aeso1lCJAJ3RGehadAVhjfXqeCdAAoaTP0AI0cB7BGh4RoBPaHaBVZgCOUJ8BEkjcoNVnoD5VGiYBOqvlBi00A1DcpvosPQPEd7BEV87Q4jIQnBLNyARoAOAoS58Bsoo5EC03A90RoBnZm9YHAAA6ZvAZILe3L58ONuj5f//TX/9Q6EQAQGcEaABgJ/UZYATzCPNyhtaXAYBHBGgAYA/1GWAorzO06AwArCFAAwDbSM8Aw3r78sn+ZQBgEwEaANhAfQYYlvQMAOwgQAMAa6nPAAPSnQGAIwRoAOC5Tel5Up8BOiQ0AwBnEKABgCXSM0ATcjAAkIMADQDctzU9T+ozwHZCMwA51Lmi/fT9DxV+F8r6qvUBAICI1GeAkyjOAANKmU2bX9FSvqspCdAAwC31GeAkze/VAWgiWSoNeDlL9g4nYwUHAPB/LH0GAADuCpieZzcH06NDEaABgP8y+AwAANwVNj3f9fS0CnVNAjQAME3qM8CZ+rppB4D0LpdmJboCO6ABAGs3AApQmQF4JFPlTHO9y/RNCU6ABoChGXwG2CfN7TcAFeRrnV1fB/N9O4IToAFgUDvS86Q+Az3r+lYZgK4lLp59XV4TfyMiswMaAEakPgPj6OvGGAA60tdFVn1uRYAGgOGoz8AI+rolBoBe9HiFlZ7bEqABYCDSMzCCHm+MARjKmktVnGba9YU1zts4MjugAWAU6jOQXtd3yACwRoWiGud6Kh/nIEADwBDUZyCxOPfJAFBfkUob6mKqOycjQANAfuozEEeo+1sAyGdTvQ17XdagMxGgASAz6RloK+xtLQAQnAadhgANAGmpz0B9ijMAUIoGnYMADQA5qc9ANaIzAHASDToBARoAElKfgbOJzgBAHRp07wRoAMhmR32WnoGnFGcAoCEZul8CNADkYfAZeEQ+BgB6p0F3SoAGgCT21edJgIa8RGcAIB8ZujsCNABkYPYZuCY9AwDpKdG9EKABoG/SM3BDfQYAxiFDxydAA0Cv7NwAbkjPAMCYZOjIBGgA6M/u9Dypz5CU9AwADE6DDkuABoDOqM/Qtd2l+O49le4MAHBNhg5IgAaAnli7AZ1SigEA6tCgoxGgAaAPBp+hR7ozAEB9GnQoAjQAdEB9hu5IzwAADWnQcbxpfQAA4AlrN6A76jMAAMx+0/oAAMAS9Rm6oz4DADTnr2RxWMEBAEFZuwE9cqsDABCHRRwRWMEBABGpz9Ad6RkAAF6zggMAwlGfIbjXrVl9BgCAu6zgAIBYLH2Gp7757i+v/zVlkQR89x9pissAAJ2ygiMCARoAAlGfYZkWDADAegJ0BAI0AIRg7QZsokQDAPCUAB2BAA0AIZh9huNKVemViziuXyaIAwBEoz4HIUADQGPSM5ztaR0ueHOiRAMARKA+xyFAA0Az1m5ASho0AEBb6nMoAjQAtKE+Q3pKNABAfepzNAI0ALSxL0BLz9AjJRoAoALpOSYBGgAa2FGfpWfIQYwGAChOeo5MgAaAqqRn4NrWHr3y5krmBgAGIT3HJ0ADQFVbA7T6DBwkRgMAKUnPvRCgAaCB5QwtOgNnUKIBgE5pzV0ToAEAYDhiNADQnKw8CAEaAADGpUQDAGcTmgcnQAMAADvp1wDAI7ozMwEaAAAoSZWmmq1pw4cToALdmRsCNAAAUM9QBfD1HXidLz9+lm3VJob6+AHUJz1zlwANAABQSdkA6j6/IG0aYDfXI5YJ0AAAAG1sip5u79tSqAFuuDCxkgANAAAADYjaQI90Z7YSoAEAAKAPmjXQiu7MbgI0AAAA5CFSZ7Uv//k8sI/cTEECNAAAADBN4WPlyiIW86voMefFfCc5rsdPI10ToAEAAIA9PEhzWG3bdMHP0sEv5NFJorV7f/poS4AGAAAAoIDi4XXkcrrmzfzp+x8evWzktw4AAAAAAAAAAAAAAAAAAAAAAAAAAAAAAAAAAAAAAAAAAAAAAAAAAAAAAAAAAAAAAAAAAAAAAAAAAAAAAAAAAAAAAAAAAAAAAAAAAAAAAAAAAAAAAAAAAAAAAAAAAAAAAAAAAAAAAAAAAAAAAAAAAAAAAAAAAAAAAAAAAAAAAAAAAAAAAAAAAAAAAAAAAAAAAAAAAAAAAAAAAAAAAAAAAAAAAAAAAAAAAAAAAAAAAAAAAAAAAAAAAAAAAAAAAAAAAAAAAAAAAAAAAAAAAAAAAAAAAAAAAAAAAAAAAAAAAAAAAAAAAAAAAAAAAAAAAAAAAAAAAAAAAAAAAAAAAAAAAAAAAAAAAAAAAAAAAAAAAAAAAAAAAAAAAAAAAAAAAAAAAAAAAAAAAAAAAAAAAAAAAAAAAAAAAAAAAAAAAAAAAAAAAAAAAAAAAAAAAAAAAAAAAAAAAAAAAAAAAAAAAAAAAAAAAAAAAAAAAAAAAAAAAAAAAAAAAAAAAAAAAAAAAAAAAAAAAAAAAAAAAAAAAAAAAAAAAAAAAAAAAAAAAAAAAAAAAAAAAAAAAAAAAAAAAAAAAAAAAAAAAAAAAAAAAAAAAAAAAAAAAAAAAAAAAAAAAAAAAAAAAAAAAAAAAAAAAAAAAAAAAAAAAAAAAAAAAAAAAAAAAAAAAAAAAAAAAAAAAAAAAAAAAAAAAAAAAAAAAAAAAAAAAAAAAAAAAAAAAAAAAAAAAAAAAAAAAAAAAAAAAAAAAAAAAAAAAAAAAAAAAAAAAAAAAAAAAAAAAAAAAAAAAAAAAAAAAAAAAAAAAAAAAAAAAAAAAAAAAAAAAAAAAAAAAAAAAAAAAAAAAAAAAAAAAAAAAAAAAAAAAAAAAAAAAAAAAAAAAAAAAAAAAAAAAAAAAAAAAAAAAAAAAAAAAAAAAAAAAAAAAAAAAAAAAAAAAAAAAAAAAAAAAAAAAAAAAAAAAAAAAAAAAAAAAAAAAAAAAAAAAAAAAAAAAAAAAAAAAAAAAAAAAAAAAAAAAAAAAAAAAAAAAAAAAAAAAAAAAAAAAAAAAAAAAAAAAAAAAAAAAAAAAAAAAAAAAAAAAAAAAAAAAAAAAAAAAAAAAAAAAAAAAAAAAAAAAAAAAAAAAAAAAAAAAAAAAAAAAAAAAAAAAAAAAAAAAAAAAAAAAAAAAAAAAAAAAAAAAAAAAAAAAAAAAAAAAAAAAAAAAAAAAAAAAAAAAAAAAAAAAAAAAAAAAAAAAAAAAAAAAAAAAAAAAAAAAAAAAAAAAAAAAAAAAAAAAAAAAAAAAAAAAAAAAAAAAAAAAAAAAAAAAAAAAAAAAAAAAAAAAAAAAAAAAAAAAAAAAAAAAAAAAAAAAAAAAAAAAAAAAAAAAAAAAAAAAAAAAAAAAAAAAAAAAAAAAAAAAAAAAAAAAAAAAAAAAAAAAAAAAAAAAAAAAAAAAAAAAAAAAAAAAAAAAAAAAAAAAAAAAAAAAAAAAAAAAAAAAAAAAAAAAAAAAAAAAAAAAAAAAAAAAAAAAAAAAAAAAAAAAAAAAAAAAAAAAAAAAAAAAAAAAAAAAAAAAAAAAAAAAAAAAAAAAAAAAAAAAAAAAAAAAAAAAAAAAAAAAAAAAAAAAAAAAAAAAAAAAAAAAAAAAAAAAAAAAAAAAAAAAAAAAAAAAAAAAAAAAAAAAAAAAAAAAAAAAAAAAAAAAAAAAAAAAAAAAAAAAAAAAAAAAAAAAAAAAAAAAAAAAAAAAAAAAAAAAAAAAAAAAAAAAAAAAAAAAAAAAAAAAAAAAAAAAAAAAAAAAAAAAAAAAAAAAAAAAAAAAAAAAAAAAAAAAAAAAAAAAAAAAAAAAAAAAAAAAAAAAAAAAAAAAAAAAAAAAAAAAAAAAAAAAAAO+w8pHA+ukwPcAAAAAABJRU5ErkJggg==;" vertex="1" parent="ZThuotnmeRBw-XxC2VrP-14">
          <mxGeometry width="480" height="270" as="geometry" />
        </mxCell>
        <mxCell id="ZThuotnmeRBw-XxC2VrP-13" value="&lt;font style=&quot;color: rgb(255, 255, 255); font-size: 16px;&quot;&gt;&lt;b&gt;ClassMix&lt;/b&gt;&lt;/font&gt;" style="text;html=1;align=center;verticalAlign=middle;resizable=0;points=[];autosize=1;strokeColor=none;fillColor=none;" vertex="1" parent="ZThuotnmeRBw-XxC2VrP-14">
          <mxGeometry width="90" height="30" as="geometry" />
        </mxCell>
        <mxCell id="ZThuotnmeRBw-XxC2VrP-26" value="" style="shape=flexArrow;endArrow=classic;html=1;rounded=0;fillColor=#60a917;strokeColor=#2D7600;" edge="1" parent="ZThuotnmeRBw-XxC2VrP-14">
          <mxGeometry width="50" height="50" relative="1" as="geometry">
            <mxPoint x="-20" y="134.5" as="sourcePoint" />
            <mxPoint x="30" y="134.5" as="targetPoint" />
          </mxGeometry>
        </mxCell>
        <mxCell id="ZThuotnmeRBw-XxC2VrP-28" value="" style="shape=flexArrow;endArrow=classic;html=1;rounded=0;fillColor=#a20025;strokeColor=#6F0000;" edge="1" parent="ZThuotnmeRBw-XxC2VrP-14">
          <mxGeometry width="50" height="50" relative="1" as="geometry">
            <mxPoint x="239.5" y="-20" as="sourcePoint" />
            <mxPoint x="239.5" y="30" as="targetPoint" />
          </mxGeometry>
        </mxCell>
        <mxCell id="ZThuotnmeRBw-XxC2VrP-5" value="" style="rounded=1;whiteSpace=wrap;html=1;fillColor=none;fontColor=#ffffff;strokeColor=#B20000;strokeWidth=3;" vertex="1" parent="1">
          <mxGeometry x="371" y="299" width="240" height="31" as="geometry" />
        </mxCell>
        <mxCell id="ZThuotnmeRBw-XxC2VrP-8" value="&lt;font style=&quot;color: rgb(178, 0, 0);&quot;&gt;candidate category&lt;/font&gt;" style="text;html=1;align=center;verticalAlign=middle;resizable=0;points=[];autosize=1;strokeColor=none;fillColor=none;" vertex="1" parent="1">
          <mxGeometry x="431" y="330" width="120" height="30" as="geometry" />
        </mxCell>
        <mxCell id="ZThuotnmeRBw-XxC2VrP-17" value="&lt;font color=&quot;#ffffff&quot;&gt;&lt;span style=&quot;font-size: 16px;&quot;&gt;&lt;b&gt;Material&lt;/b&gt;&lt;/span&gt;&lt;/font&gt;" style="text;html=1;align=center;verticalAlign=middle;resizable=0;points=[];autosize=1;strokeColor=none;fillColor=none;" vertex="1" parent="1">
          <mxGeometry x="150" y="120" width="80" height="30" as="geometry" />
        </mxCell>
      </root>
    </mxGraphModel>
  </diagram>
</mxfile>
